<?xml version="1.0" encoding="UTF-8" standalone="no"?>
<svg
   xmlns:dc="http://purl.org/dc/elements/1.1/"
   xmlns:cc="http://creativecommons.org/ns#"
   xmlns:rdf="http://www.w3.org/1999/02/22-rdf-syntax-ns#"
   xmlns:svg="http://www.w3.org/2000/svg"
   xmlns="http://www.w3.org/2000/svg"
   xmlns:sodipodi="http://sodipodi.sourceforge.net/DTD/sodipodi-0.dtd"
   xmlns:inkscape="http://www.inkscape.org/namespaces/inkscape"
   inkscape:version="1.0 (4035a4f, 2020-05-01)"
   sodipodi:docname="logo.svg"
   version="1.1"
   id="svg29"
   xml:space="preserve"
   width="2143.8284"
   height="1889.2012"
   viewBox="0 0 2143.8284 1889.2011"><sodipodi:namedview
     inkscape:current-layer="svg29"
     inkscape:window-maximized="0"
     inkscape:window-y="737"
     inkscape:window-x="1627"
     inkscape:cy="1383.5362"
     inkscape:cx="1159.2977"
     inkscape:zoom="0.81534883"
     showgrid="false"
     id="namedview884"
     inkscape:window-height="1269"
     inkscape:window-width="1948"
     inkscape:pageshadow="2"
     inkscape:pageopacity="0"
     guidetolerance="10"
     gridtolerance="10"
     objecttolerance="10"
     borderopacity="1"
     bordercolor="#666666"
     pagecolor="#ffffff" /><metadata
     id="metadata35"><rdf:RDF><cc:Work
         rdf:about=""><dc:format>image/svg+xml</dc:format><dc:type
           rdf:resource="http://purl.org/dc/dcmitype/StillImage" /><dc:title /></cc:Work></rdf:RDF></metadata><defs
     id="defs33"><clipPath
   clipPathUnits="userSpaceOnUse"
   id="clipPath45"><path
     d="M 0.378,0 H 1864 V 1874 H 0.378 Z"
     id="path43" /></clipPath><clipPath
   clipPathUnits="userSpaceOnUse"
   id="clipPath59"><path
     d="M 0,1874 H 1864 V 0 H 0 Z"
     id="path57" /></clipPath>


</defs><g
     style="display:inline"
     transform="matrix(1.3262159,-0.13758289,-0.13758289,-1.3262159,549.1664,904.81812)"
     id="g1477"><path
       id="path1475"
       style="display:inline;fill:#000000;fill-opacity:1;fill-rule:nonzero;stroke:none"
       d="m 0,0 c -0.003,0.017 -0.005,0.034 -0.005,0.052 -0.266,26.847 -24.866,95.648 -20.067,102.539 0.037,0.054 0.078,0.098 0.124,0.144 28.882,28.649 102.32,98.755 102.32,98.755 0,0 96.351,98.132 152.564,71.508 0.744,-0.352 1.527,0.378 1.246,1.153 -14.472,39.773 -67.568,67.354 -73.235,70.205 -0.304,0.153 -0.663,0.122 -0.94,-0.075 L 80.259,286.112 c -0.014,-0.009 -0.02,-0.014 -0.034,-0.023 -1.537,-0.975 -130.393,-82.671 -138.329,-87.769 -7.982,-5.128 -24.982,-9.128 -67.448,16.554 -14.924,9.025 -43.436,69.1 -18.84,68.317 26.78,-0.866 72.306,-6.999 80.444,8.916 4.132,8.08 9.953,14.204 19.279,13.445 53.583,-4.36 66.141,23.191 68.044,34.562 6.537,39.068 -38.966,63.968 -74.415,80.981 -0.02,0.009 -0.039,0.018 -0.06,0.026 -22.481,9.103 -54.906,14.881 -72.023,20.382 -0.48,0.154 -0.741,0.665 -0.582,1.144 5.702,17.227 61.837,116.658 71.585,133.488 0.023,0.04 0.042,0.079 0.059,0.121 3.64,9 1.904,16.707 13.975,17.936 45.954,4.682 29,118 -15.749,70.407 -28.872,-30.707 -134.169,-187.113 -140.807,-196.984 -0.199,-0.298 -0.55,-0.45 -0.903,-0.392 -2.839,0.467 -15.548,2.421 -23.738,1.375 -0.302,-0.039 -0.597,0.072 -0.799,0.3 -33.174,37.417 -61.195,75.731 -99.623,108.344 -0.09,0.077 -0.198,0.138 -0.31,0.177 -34.213,11.955 -12.921,-39.184 -1.144,-53.141 0.05,-0.058 0.091,-0.122 0.124,-0.191 6.695,-13.704 -14.133,-22.531 10.693,-44.915 0.096,-0.087 0.175,-0.197 0.225,-0.316 14.435,-33.937 58.542,-25.767 30.346,-62.973 -101.238,-133.589 -94.623,-265.249 -89.847,-301.115 0.008,-0.056 0.008,-0.11 0.003,-0.166 -0.423,-4.5 3.437,-9.077 7.386,-11.031 39.129,-19.372 69.529,-106.6 74.529,-146.876 0.004,-0.028 0.006,-0.057 0.007,-0.086 3.138,-77.082 -24.803,-220.458 -24.836,-220.613 -15.557,-72.804 30.443,-133.804 44.443,-149.804 0.19,-0.217 8,-8 38.493,-39.547 0.032,-0.033 0.061,-0.07 0.087,-0.107 19.36,-28.5 26.563,-46.284 23.608,-78.168 -0.003,-0.032 -0.008,-0.065 -0.015,-0.098 -16.174,-77.08 -82.232,-87.475 -103.173,-90.08 -0.462,-0.057 -50.973,7.596 -69,-12 -46,-50 43.081,-43.762 43.541,-43.806 5.195,-0.489 61.331,10.236 128.459,91.806 6.413,7.793 38,67 -2.277,127.659 -17.429,26.249 -35.114,39.286 -52.196,63.854 -0.276,0.398 -0.198,0.951 0.177,1.257 10.238,8.382 10.563,8.777 19.048,-2.24 0.093,-0.121 23.248,-30.53 72.795,-18.68 0.041,0.01 0.085,0.001 0.127,0.006 47.471,5.131 103.636,11.017 107.903,-47.232 0.011,-0.162 0.131,-0.294 0.162,-0.453 5.261,-27.171 15.261,-37.171 24.659,-73.325 11.602,-1.846 46.602,-65.846 110.727,-109.654 0.063,-0.043 17.875,-11.192 0.178,-58.271 -0.017,-0.044 0.041,-0.087 0.064,-0.128 24.213,-42.199 51.119,-22.106 45.633,19.207 -0.013,0.094 -2.406,35.246 -2.426,35.416 -3.574,31.584 -14.574,35.584 -14.574,35.584 -11.622,-3.412 -13.346,10.818 -22.158,15.812 -37.875,22.593 -52.343,78.177 -72.842,115.188 -0.262,0.472 -3,9 12.976,-0.736 9.048,-5.515 61.876,-39.023 64.343,-37.671 11.681,6.407 33.377,-12.544 26.574,-27.113 -4.893,-10.48 -2.015,-16.888 -1.893,-17.48 8.524,-41.32 47.926,-14.154 48.03,-13.741 4.97,19.741 -17.034,61.848 -17.753,63.831 -2.841,7.843 -7.504,16.308 -15.555,18.491 -34.722,9.419 -59.235,32.36 -59.655,32.684 -63.067,48.735 -54.551,91.501 -54.523,91.677 10.456,65.058 -40.965,139.595 -41.034,139.741 C -32.271,-226.397 21.914,-124.808 0,0" /></g><g
     style="display:inline;fill:#000000;fill-opacity:1"
     transform="matrix(1.3282596,0.11620765,0.11620765,-1.3282596,1575.3103,913.47801)"
     id="g1481"><path
       id="path1479"
       style="display:inline;fill:#000000;fill-opacity:1;fill-rule:nonzero;stroke:none"
       d="m 0,0 c 0.003,0.017 0.005,0.034 0.005,0.052 0.266,26.847 24.866,95.648 20.067,102.539 -0.037,0.054 -0.078,0.098 -0.124,0.144 -28.882,28.649 -102.32,98.755 -102.32,98.755 0,0 -96.351,98.132 -152.564,71.508 -0.744,-0.352 -1.527,0.378 -1.246,1.153 14.472,39.773 67.568,67.354 73.235,70.205 0.304,0.153 0.663,0.122 0.94,-0.075 l 81.748,-58.169 c 0.014,-0.009 0.021,-0.014 0.034,-0.023 1.538,-0.975 130.393,-82.671 138.329,-87.769 7.982,-5.128 24.982,-9.128 67.448,16.554 14.924,9.025 43.436,69.1 18.84,68.317 -26.779,-0.866 -72.306,-6.999 -80.444,8.916 -4.132,8.08 -9.953,14.204 -19.279,13.445 -53.583,-4.36 -66.141,23.191 -68.044,34.562 -6.537,39.068 38.966,63.968 74.415,80.981 0.02,0.009 0.039,0.018 0.06,0.026 22.481,9.103 54.906,14.881 72.023,20.382 0.481,0.154 0.741,0.665 0.583,1.144 -5.703,17.227 -61.838,116.658 -71.586,133.488 -0.023,0.04 -0.042,0.079 -0.059,0.121 -3.64,9 -1.904,16.707 -13.975,17.936 -45.954,4.682 -29,118 15.75,70.407 28.871,-30.707 134.168,-187.113 140.806,-196.984 0.199,-0.298 0.55,-0.45 0.903,-0.392 2.839,0.467 15.548,2.421 23.738,1.375 0.302,-0.039 0.597,0.072 0.799,0.3 33.174,37.417 61.195,75.731 99.623,108.344 0.091,0.077 0.198,0.138 0.31,0.177 34.213,11.955 12.921,-39.184 1.144,-53.141 -0.05,-0.058 -0.091,-0.122 -0.124,-0.191 -6.694,-13.704 14.134,-22.531 -10.693,-44.915 -0.096,-0.087 -0.175,-0.197 -0.226,-0.316 -14.433,-33.937 -58.541,-25.767 -30.345,-62.973 101.239,-133.589 94.624,-265.249 89.846,-301.115 -0.007,-0.056 -0.008,-0.11 -0.002,-0.166 0.422,-4.5 -3.437,-9.077 -7.386,-11.031 C 323.101,84.199 292.7,-3.029 287.7,-43.305 c -0.004,-0.028 -0.006,-0.057 -0.007,-0.086 -3.138,-77.082 24.803,-220.458 24.836,-220.613 15.558,-72.804 -30.442,-133.804 -44.443,-149.804 -0.19,-0.217 -8,-8 -38.493,-39.547 -0.032,-0.033 -0.061,-0.07 -0.087,-0.107 -19.36,-28.5 -26.563,-46.284 -23.608,-78.168 0.003,-0.032 0.008,-0.065 0.015,-0.098 16.174,-77.08 82.232,-87.475 103.174,-90.08 0.462,-0.057 50.972,7.596 69,-12 46,-50 -43.082,-43.762 -43.542,-43.806 -5.195,-0.489 -61.331,10.236 -128.459,91.806 -6.413,7.793 -38,67 2.277,127.659 17.429,26.249 35.114,39.286 52.197,63.854 0.275,0.398 0.197,0.951 -0.178,1.257 -10.238,8.382 -10.563,8.777 -19.048,-2.24 -0.093,-0.121 -23.248,-30.53 -72.795,-18.68 -0.041,0.01 -0.085,0.001 -0.127,0.006 -47.471,5.131 -103.636,11.017 -107.903,-47.232 -0.011,-0.162 -0.131,-0.294 -0.162,-0.453 -5.261,-27.171 -15.261,-37.171 -24.659,-73.325 -11.602,-1.846 -46.602,-65.846 -110.727,-109.654 -0.063,-0.043 -17.875,-11.192 -0.178,-58.271 0.017,-0.044 -0.04,-0.087 -0.064,-0.128 -24.213,-42.199 -51.119,-22.106 -45.633,19.207 0.013,0.094 2.406,35.246 2.426,35.416 3.574,31.584 14.574,35.584 14.574,35.584 11.623,-3.412 13.346,10.818 22.158,15.812 37.875,22.593 52.343,78.177 72.842,115.188 0.262,0.472 3,9 -12.976,-0.736 -9.047,-5.515 -61.876,-39.023 -64.343,-37.671 -11.681,6.407 -33.377,-12.544 -26.574,-27.113 4.893,-10.48 2.015,-16.888 1.893,-17.48 -8.524,-41.32 -47.925,-14.154 -48.029,-13.741 -4.971,19.741 17.033,61.848 17.752,63.831 2.841,7.843 7.504,16.308 15.555,18.491 34.722,9.419 59.235,32.36 59.655,32.684 63.067,48.735 54.551,91.501 54.523,91.677 -10.456,65.058 40.965,139.595 41.034,139.741 C 32.271,-226.397 -21.914,-124.808 0,0" /></g><g
     style="display:inline"
     transform="matrix(1.3333333,0,0,-1.3333333,832.43795,312.24454)"
     id="g1485"><path
       id="path1483"
       style="display:inline;fill:#000000;fill-opacity:1;fill-rule:nonzero;stroke:none"
       d="m 0,0 c 100.137,-55.973 253.584,-63.03 343.948,5.408 -15.412,54.201 -12.742,138.051 -68.483,166.638 -41.413,3.245 -73.401,-39.429 -115.013,-33.55 -34.806,6.33 -72.738,50.929 -107.483,28.737 C 17.582,123.287 2.078,55.281 0,0 m 428.041,-101.732 c -87.08,-150.04 -440.364,-140.833 -513.428,7.367 -11.21,50.182 31.619,77.933 73.36,92.394 -3.67,-23.994 -7.145,-47.867 11.668,-66.464 77.45,-58.217 312.498,-73.98 357.024,26.768 2.305,13.155 -0.43,25.275 -2.876,38.197 41.143,-12.489 94.967,-49.186 74.252,-98.262" /></g><g
     style="display:inline"
     transform="matrix(4.9941496,0,0,4.2331952,431.81525,448.7528)"
     id="g1505"><g
       class="layer"
       id="g1493"
       transform="translate(0.24805302,0.75650417)"
       style="display:inline;fill:#ffffff;fill-opacity:1;stroke:#000000;stroke-opacity:1"><title
         id="title1489">Layer 1</title><path
         d="M 2.845387,50.888141 C 105.0612,47.958241 125,2.8748006 125,2.8748006 c 0,0 17.692,45.3638604 124.32589,49.9338404 C 248.13927,157.83201 189.75355,251.26994 125,332.34707 59.775216,241.96094 4.2091059,144.829 2.845387,50.888141 Z"
         id="path1491"
         style="clip-rule:evenodd;display:inline;fill:#ffffff;fill-opacity:1;fill-rule:evenodd;stroke:#ffffff;stroke-width:5;stroke-opacity:1" /></g><g
       transform="matrix(0.91955986,0,0,0.91955986,10.390065,14.143576)"
       id="g1503"
       class="layer"
       style="display:inline;fill:#000000;fill-opacity:1"><title
         id="title1499">Layer 1</title><path
         style="clip-rule:evenodd;display:inline;fill:#000000;fill-opacity:1;fill-rule:evenodd;stroke:#000000;stroke-width:5.26559;stroke-linejoin:round;stroke-miterlimit:4;stroke-dasharray:none"
         id="path1501"
         d="M -3.6977199,44.691056 C 103.94496,41.605601 124.94237,-5.871424 124.94237,-5.871424 c 0,0 18.63129,47.772332 130.92662,52.584944 C 254.61938,157.31281 193.13384,255.71157 124.94237,341.09327 56.254644,245.90834 -2.2615981,143.61944 -3.6977199,44.691056 Z" /></g></g><g
     style="display:inline"
     transform="matrix(0.48902109,0,0,0.48902109,654.87577,638.46049)"
     id="g1563"><g
       transform="translate(267.06542,369.97437)"
       style="display:inline"
       id="g1553"><path
         id="path1537"
         d="m 684.38411,782.68157 c -25.35546,17.40911 -32.43385,24.06667 -60.96203,46.44148 C 858.59887,1069.0012 1152.1366,1028.8384 1177.1665,1031.8866 824.24146,1209.9584 622.96306,898.55659 546.71336,891.26359 508.65671,922.48691 411.61202,1020.4465 310.44364,1053.5673 -31.736581,1137.5927 -197.406,951.67043 -193.24926,789.53776 -323.19535,596.96098 -257.2532,444.27788 -114.35901,388.06982 c 104.8567939,-41.24588 241.59825,-19.63383 335.26454,-3.26223 -374.99089,-966.1194 1003.63697,-1040.2986 726.58869,-59.08565 83.63988,-8.45775 276.42258,-0.19347 305.38818,192.91778 404.6397,126.28926 60.741,552.95528 -350.03115,399.24864 C 853.75369,894.57988 687.28978,787.23957 684.38411,782.68157 Z"
         style="clip-rule:evenodd;opacity:1;fill:#fffeff;fill-opacity:1;fill-rule:evenodd;stroke:#000016;stroke-width:1;stroke-linecap:butt;stroke-linejoin:round;stroke-miterlimit:4;stroke-dasharray:none;stroke-opacity:1"><title
           id="title1535">outer</title></path><path
         id="path1539"
         d="m 771.7482,714.70835 c 416.5619,382.62665 883.7275,-27.15396 465.233,-110.67412 -19.4323,59.15404 -89.6657,119.75997 -189.2247,118.20081 56.347,-56.82784 95.9854,-29.13218 138.8848,-126.82567 -126.7284,-12.25408 -302.63573,5.49582 -414.8931,119.29898 z"
         style="clip-rule:evenodd;fill:#000000;fill-opacity:1;fill-rule:evenodd;stroke:#00000e;stroke-width:1;stroke-linejoin:round;stroke-miterlimit:4;stroke-dasharray:none;stroke-opacity:1" /><path
         id="path1541"
         d="M -167.13272,700.90559 C -27.95006,490.88398 297.4533,611.2301 408.0141,665.74774 c 31.30149,-19.06207 43.99995,-30.59489 71.2601,-45.33675 -373.20344,-393.91244 -823.96529,-206.97536 -646.40692,80.4946 z"
         style="clip-rule:evenodd;fill:#000000;fill-opacity:1;fill-rule:evenodd;stroke:#180000;stroke-width:1;stroke-linejoin:round;stroke-miterlimit:4;stroke-dasharray:none;stroke-opacity:1" /><path
         id="path1543"
         d="M -117.30702,838.90661 C 59.451463,1098.3646 330.10955,1033.1756 521.13454,862.85138 486.27074,814.94142 417.59068,763.85364 363.20636,735.86192 219.6777,827.96574 78.177985,907.14804 -117.30702,838.90661 Z"
         style="clip-rule:evenodd;fill:#000000;fill-opacity:1;fill-rule:evenodd;stroke:#000000;stroke-width:1;stroke-linejoin:round;stroke-miterlimit:4;stroke-dasharray:none;stroke-opacity:1" /><path
         id="path1545"
         d="M 338.04552,710.25627 C 48.592701,523.53383 -186.64164,701.43035 -104.91763,751.16086 70.599717,815.92304 215.09923,794.80398 338.04552,710.25627 Z"
         style="clip-rule:evenodd;fill:#0c0000;fill-opacity:1;fill-rule:evenodd;stroke:#120000;stroke-width:1;stroke-linejoin:round;stroke-miterlimit:4;stroke-dasharray:none;stroke-opacity:1" /><path
         id="path1547"
         d="m 507.48886,640.70522 c -23.95742,18.48369 -34.19004,22.80678 -66.07915,42.84232 42.96757,31.74898 96.00719,69.82449 155.86879,116.96275 24.65236,-21.02762 29.1045,-20.54302 50.70049,-40.11023 -76.97622,-61.17532 -98.42845,-78.21421 -140.49013,-119.69484 z"
         style="clip-rule:evenodd;fill:#000000;fill-opacity:1;fill-rule:evenodd;stroke:#000000;stroke-width:1;stroke-linejoin:round;stroke-miterlimit:4;stroke-dasharray:none;stroke-opacity:1" /><path
         id="path1549"
         d="M 281.82895,48.144092 C 317.84514,-517.12145 888.38809,-422.08881 862.28524,80.404927 829.24071,670.67667 233.57444,617.16999 281.82895,48.144092 Z"
         style="clip-rule:evenodd;fill:#050000;fill-opacity:1;fill-rule:evenodd;stroke:none;stroke-width:8;stroke-linejoin:round;stroke-miterlimit:4;stroke-dasharray:none;stroke-opacity:1" /><path
         id="path1551"
         d="M 733.70432,693.51011 C 680.76798,651.20597 644.34246,621.84 589.19367,570.63937 c 10.11717,-26.11616 41.18068,-34.03047 66.10297,-38.59897 61.88895,-12.73241 122.80852,-36.20667 170.72297,-78.47556 27.53132,-22.93183 53.16745,-48.00001 79.22739,-72.55918 77.04992,-17.22536 162.1178,1.16671 221.7681,53.99651 26.5851,22.85107 49.0663,50.80525 64.262,82.4774 -86.5629,1.23754 -168.6828,-1.99521 -266.53484,50.96818 -70.26388,37.912 -128.90055,72.90708 -191.03794,125.06236 z"
         style="clip-rule:evenodd;fill:#000000;fill-opacity:1;fill-rule:evenodd;stroke:#000000;stroke-width:1;stroke-linejoin:round;stroke-miterlimit:4;stroke-dasharray:none;stroke-opacity:1" /></g></g><g
     style="display:inline;fill:#f8ffff;fill-opacity:1;stroke:#a0b716;stroke-width:1.80184;stroke-miterlimit:4;stroke-dasharray:none;stroke-opacity:1"
     id="g1589"
     class="layer"
     transform="matrix(3.6800471,0,0,3.6800471,166.77931,1438.1412)"><title
       id="title1565">Layer 1</title><path
       style="fill:#fffffa;fill-opacity:1;stroke:#ffffff;stroke-width:1.80184;stroke-miterlimit:4;stroke-dasharray:none;stroke-opacity:1"
       id="path1567"
       d="m 394.38592,53.669132 c 0.815,4.067 1.187,8.169 1.758,12.269 0.2,1.444 2.19933,1.658333 -1.729,2.212 -3.92833,0.553667 -67.054,-3.759 -143.92,-5.22 -76.866,-1.461 -153.933242,2.551781 -156.613242,2.376781 -2.68,-0.175 -4.036512,-0.576439 -3.855512,-2.530439 0.626,-6.76 2.336756,-13.498341 2.971756,-20.252341 0.137,-1.459 -0.146,-1.807 -1.602,-1.802 -6.666,0.021 -13.352,0.213 -19.991,0.781 -0.467,7.172 0.095,14.34 0.387,21.519 0.056,1.368 -0.231,1.691 -1.74,1.795 -13.606,0.938 -37.707478,2.590251 -41.786286,3.110286 -4.078808,0.520035 -22.070714,4.426571 -25.304714,5.169571 -3.985,0.916 -1.588,-3.037857 -0.952,-3.875857 2.264,-2.983 3.708714,-7.776286 3.467,-10.303286 -0.241714,-2.527 -3.743571,-7.714428 -4.617,-9.070571 -0.873429,-1.356143 -0.961929,-2.062 0.573589,-2.521107 1.535518,-0.459107 23.987911,-4.650036 24.503411,-5.162036 0.5155,-0.512 0.108386,-5.748106 -0.727392,-10.809488 -0.835778,-5.061382 -3.400222,-9.881374 -3.666047,-10.761146 -0.53165,-1.759545 -0.205548,-1.564563 3.483024,-3.383293 1.844286,-0.909365 21.40892,-7.409255 43.646053,-10.96471 22.237133,-3.555455 44.61018,-4.703059 46.99812,-4.76151 7.40489,-0.628151 7.77589,0.503434 8.55319,1.829239 0.77729,1.325805 -5.32624,10.79197 -4.88165,11.916853 0.44458,1.124882 83.32082,-2.696063 131.1377,-2.803298 47.81688,-0.107235 117.37,5.418353 118.123,4.194353 0.753,-1.224 -3.289,-10.466 -3.678,-12.255 -0.389,-1.789 0.893,-2.381 3.232,-2.492 2.339,-0.111 25.852,1.393 49.922,5.764 24.07,4.371 53.76881,13.67855 50.027,18.465 -3.74182,4.78646 -5.301,10.125 -5.733,11.666 -0.432,1.541 -2.307,8.072 -0.322,8.415 30.225,4.877 28.648,4.414 29.751,4.715 1.103,0.301 0.889,1.922 0.108,2.511 -0.781,0.589 -6.557,4.144 -7.471,9.826 -0.914,5.682 1.724,11.567 0.962,13.067 -0.762,1.5 -10.44,-1.674 -14.569,-2.095 -8.063,-0.822 -26.587,-3.398 -34.619,-4.511 -7.10767,-0.83017 -10.89634,-1.59618 -16.01593,-1.92031 -5.11959,-0.32413 -4.64895,-2.36822 -4.69536,-3.18738 -0.0464,-0.81916 1.66471,-14.81204 2.02371,-18.69804 0.118,-1.274 -0.56942,-1.67727 -1.88742,-1.87427 -7.426,-1.11 -15.836,-3.107 -23.348,-2.099 z" /><path
       style="fill:#000000;fill-opacity:1;stroke:#fffffa;stroke-width:1.80184;stroke-miterlimit:4;stroke-dasharray:none;stroke-opacity:1"
       id="path1569"
       d="m 251.36039,14.757426 c -48.11821,0.45702 -131.19147,1.833706 -133.81247,4.907706 -2.621,3.074 0.3973,10.706951 5.72529,17.060951 5.328,6.354 0.56295,6.291138 -4.47895,9.664382 -5.04191,3.373244 -25.532229,14.983901 -24.66515,16.801471 0.867079,1.81757 50.28981,-4.077805 157.35581,-2.575805 107.066,1.502 140.39167,6.513667 140.87967,4.942 0.488,-1.571666 -9.10467,-9.022 -13.70067,-12.627 -2.399,-1.883 -4.86,-3.639 -7.486,-5.194 -2.596,-1.536 -5.589,-3.588 -8.63,-4.027 -0.971,-0.14 -1.575,-1.801 -0.813,-2.508 7.167,-14.153 7.8301,-20.31749 6.98953,-20.856941 -0.84057,-0.539451 -69.24584,-6.044784 -117.36406,-5.587765 z" /><path
       style="fill:#000000;fill-opacity:1;stroke:#fffffa;stroke-width:1.80184;stroke-miterlimit:4;stroke-dasharray:none;stroke-opacity:1"
       id="path1571"
       d="m 365.69292,40.231132 c 8.158,-0.192 15.872,-0.825 23.565,-0.628 7.999,0.206 16.011,0.972 23.936,2.06 7.592,1.043 15.061,2.713 22.543,4.341 3.806,0.828 7.669,1.583 11.379,2.789 3.515,1.143 9.747,4.226 10.367,3.885 0.62,-0.341 1.498,-10.425 2.786,-14.965 1.25,-4.406 4.942,-9.569 4.983,-12.248 0.041,-2.679 -21.182,-9.919 -47.38,-14.684 -26.198,-4.765 -48.85,-6.65 -50.083,-6.251 -1.233,0.399 4.28153,11.252882 4.2423,14.334824 -0.0392,3.081941 -6.7013,20.745176 -6.3383,21.366176 0.363,0.621 -0.03,-0.171 0,0 z" /><path
       style="fill:#000000;fill-opacity:1;stroke:#fffffa;stroke-width:1.80184;stroke-miterlimit:4;stroke-dasharray:none;stroke-opacity:1"
       id="path1573"
       d="m 24.283875,20.000103 c -0.446925,1.083176 1.419718,3.537814 2.598996,10.338313 1.179279,6.800499 1.33786,17.246859 2.341479,17.880145 1.003619,0.633286 27.205481,-7.200038 37.392143,-8.688714 10.186662,-1.488676 22.408428,-1.207714 30.622428,-0.696714 20.696999,1.486 22.440999,1.747 24.134999,0.81 -5.826,-9.198 -7.056,-14.035 -6.837,-19.241 0.245,-5.815 8.7925,-14.842797 6.93582,-16.257182 C 119.61606,2.730566 81.93011,6.035693 69.67099,8.011552 57.41187,9.987411 24.7308,18.916928 24.283875,20.000104 Z" /><path
       style="fill:#000000;fill-opacity:1;stroke:#fffffa;stroke-width:1.80184;stroke-miterlimit:4;stroke-dasharray:none;stroke-opacity:1"
       id="path1575"
       d="m 461.80592,48.705132 c -1.395,-0.238 -1.544,-0.123 -1.704,1.378 -0.125,1.17 -0.198,2.326 -0.302,3.499 -0.112,1.273 -0.47919,1.27621 -1.729,1.629 -1.24982,0.3528 -36.05718,9.52798 -36.52111,10.19317 -0.46393,0.66518 22.28111,2.77783 32.30111,4.21283 28.409,4.231 27.349,4.74934 27.838,4.309 0.489,-0.44033 0.11833,-7.29367 0.0273,-10.07266 -0.179,-5.501 7.08067,-10.52267 6.184,-10.692 z" /><path
       style="fill:#000000;fill-opacity:1;stroke:#fffffa;stroke-width:1.80184;stroke-miterlimit:4;stroke-dasharray:none;stroke-opacity:1"
       id="path1577"
       d="m 3.104922,49.381132 c -0.374572,1.718857 4.29646,6.95045 4.33146,8.86045 0.09,4.933 -4.73883,12.08925 -3.93346,12.68955 20.035,-4.054571 18.758516,-4.240474 25.778285,-5.221571 7.01977,-0.981097 38.49175,-2.432531 38.738143,-3.073 0.246393,-0.640469 -38.924905,-10.532334 -40.147333,-11.848191 -1.222429,-1.315857 -0.352905,-5.185905 -1.449762,-5.958905 -1.096857,-0.773 -22.942762,2.83281 -23.317333,4.551667 z" /><path
       style="fill:#000000;fill-opacity:1;stroke:#fffffa;stroke-width:1.80184;stroke-miterlimit:4;stroke-dasharray:none;stroke-opacity:1"
       id="path1579"
       d="m 30.732573,50.179401 c -0.339554,0.568413 36.743059,10.456041 37.428349,9.901731 0.68528,-0.5543 1.654373,-16.114137 0.131143,-17.601857 -1.52324,-1.48771 -37.219937,7.131713 -37.559492,7.700126 z" /><path
       style="fill:#000000;fill-opacity:1;stroke:#fffffa;stroke-width:1.80184;stroke-miterlimit:4;stroke-dasharray:none;stroke-opacity:1"
       id="path1581"
       d="m 421.72192,45.090132 c -1.56534,0.349 -2.312,5.461 -2.559,7.297 -0.538,4 -2.63067,12.50034 -1.389,12.011 1.24166,-0.48933 35.30933,-9.664 34.384,-11.115 -0.92534,-1.451 -28.87067,-8.542 -30.436,-8.193 z" /><path
       style="fill:#000000;fill-opacity:1;stroke:#fffffa;stroke-width:1.80184;stroke-miterlimit:4;stroke-dasharray:none;stroke-opacity:1"
       id="path1583"
       d="m 378.66392,49.904132 c 4.482,3.227 10.342,8.365 14.63,11.838 0.66,-3.935 -1.173,-8.787 -1.906,-12.637 -0.41,-2.157 -0.68,-4.438 -1.34,-6.536 -0.374,-1.191 -1.494,-1.081 -2.556,-1.097 -5.977,-0.09 -21.29267,0.06134 -20.946,1.055 0.34666,0.99367 7.93233,4.58534 12.118,7.377 z" /><path
       style="fill:#000000;fill-opacity:1;stroke:#fffffa;stroke-width:1.80184;stroke-miterlimit:4;stroke-dasharray:none;stroke-opacity:1"
       id="path1585"
       d="m 96.854922,40.939132 c -0.934,-0.076 -1.295,0.355 -1.429,1.269 -0.637,4.36 -3.131988,16.771785 -2.663358,17.440325 0.46862,0.66854 26.946196,-15.824698 26.380016,-16.832378 -0.56617,-1.00767 -17.39503,-1.495197 -22.287658,-1.876947 z" /></g><path
     d="m 767.35785,1574.0728 c -1.2943,-17.4531 -11.64881,-38.397 -31.78255,-45.9853 -22.29093,-8.4989 -47.60193,0 -61.40792,20.6403 -14.81268,21.7027 -13.51837,50.5384 3.16388,70.1164 9.49162,11.2306 22.29092,16.9978 35.95311,16.9978 9.3478,0 18.98325,-2.58 28.18724,-8.1954 0,0 0,0 0,0 2.15718,-1.2141 4.17056,-2.7319 6.18393,-4.2495 13.66219,-11.2307 20.99662,-29.7463 19.70231,-49.3243 z m -29.19393,36.5758 c -1.29432,1.0625 -2.73244,1.9731 -4.17056,2.8837 v 0 c -16.82606,10.0165 -33.79593,7.8918 -45.30093,-5.6154 -9.63543,-11.2308 -14.38124,-31.7192 -2.01337,-49.7796 7.33444,-10.9271 19.12707,-16.9978 31.2073,-16.9978 4.17057,0 8.48494,0.607 12.51169,2.2764 13.66218,5.1602 20.70899,19.7298 21.57187,31.8712 1.00668,13.9624 -4.31438,27.4697 -13.806,35.3615 z"
     style="font-style:normal;font-variant:normal;font-weight:normal;font-stretch:normal;font-size:110.802px;line-height:1.25;font-family:'Sailors Diary';-inkscape-font-specification:'Sailors Diary, Normal';font-variant-ligatures:normal;font-variant-caps:normal;font-variant-numeric:normal;font-feature-settings:normal;text-align:start;letter-spacing:0px;word-spacing:0px;writing-mode:lr-tb;text-anchor:start;fill:#ffffff;fill-opacity:1;stroke:none;stroke-width:1.9786;stroke-opacity:1"
     id="path886" /><path
     d="m 840.20786,1571.7964 c -10.21069,-2.7318 -20.99662,-5.6154 -26.03007,-10.9273 -0.14381,-0.1518 -0.14381,-0.3036 -0.28762,-0.4553 -4.74581,-4.4012 -3.30768,-7.2848 -2.73243,-8.4989 2.73243,-5.919 14.95649,-12.9003 29.48155,-9.8648 7.33443,1.5176 11.36118,3.3388 18.12037,7.133 3.73913,2.1247 8.34112,0.6071 10.35449,-3.4907 2.01338,-3.9459 0.57525,-8.8024 -3.30769,-10.9271 -7.19061,-3.946 -12.65548,-6.6778 -22.29092,-8.6507 -19.12706,-3.946 -39.40462,4.2494 -46.16381,18.6672 -4.45817,9.4097 -2.15718,19.7297 6.04013,27.6216 8.19731,8.4989 20.85281,11.8379 33.07687,15.1767 18.55181,4.8566 27.32437,8.1954 26.74912,17.3015 -0.28763,6.8295 -7.19063,9.8648 -12.94312,11.2307 -18.26418,4.2495 -43.14374,-3.3388 -49.18387,-15.1767 -2.01337,-3.7941 -6.75918,-5.3119 -10.49831,-3.187 -3.73912,2.1246 -5.03343,7.133 -3.02006,11.0789 8.34112,15.9355 31.35112,24.5863 51.77248,24.5863 5.03345,0 9.92307,-0.4553 14.23744,-1.5178 15.24412,-3.6423 24.3043,-13.0518 25.02336,-26.1038 1.29432,-23.524 -20.70898,-29.291 -38.39791,-33.9958 z"
     style="font-style:normal;font-variant:normal;font-weight:normal;font-stretch:normal;font-size:110.802px;line-height:1.25;font-family:'Sailors Diary';-inkscape-font-specification:'Sailors Diary, Normal';font-variant-ligatures:normal;font-variant-caps:normal;font-variant-numeric:normal;font-feature-settings:normal;text-align:start;letter-spacing:0px;word-spacing:0px;writing-mode:lr-tb;text-anchor:start;fill:#ffffff;fill-opacity:1;stroke:none;stroke-width:1.9786;stroke-opacity:1"
     id="path888" /><path
     d="m 1026.3641,1522.9274 c -3.8829,-1.9729 -8.4849,-0.3035 -10.3545,3.7942 -7.4783,16.239 -11.9364,31.7193 -16.25081,46.7442 -2.87626,10.472 -5.89632,20.6403 -9.63543,30.8087 -0.71908,-1.366 -1.43814,-2.7318 -2.1572,-4.0977 -5.8963,-11.9897 -12.08025,-24.1309 -17.83274,-36.2723 -1.29431,-3.0354 -4.31437,-4.7048 -7.19063,-4.5531 0,0 0,0 0,0 -0.14381,0 -0.14381,0 -0.14381,0 -3.02005,-0.1517 -5.89631,1.5177 -7.33444,4.5531 -5.60868,12.1414 -11.79261,24.2826 -17.68893,36.2723 -1.00668,1.8211 -1.86956,3.4905 -2.73243,5.3119 -4.02675,-10.472 -7.04681,-20.7921 -10.21069,-31.5676 -4.31437,-14.8732 -8.77256,-30.3534 -16.2508,-46.2889 -1.86957,-4.0978 -6.47156,-5.7672 -10.21069,-3.7942 -3.88294,1.973 -5.46487,6.8295 -3.5953,10.7755 6.90299,15.0249 10.92974,29.1392 15.38792,44.0124 4.45819,15.4802 9.06019,31.4157 16.96987,47.9584 1.29431,2.7317 4.02675,4.4011 6.90301,4.4011 1.00668,0 2.15718,-0.3035 3.16386,-0.7588 2.01338,-0.6071 3.88294,-1.9729 5.03345,-4.0976 3.02005,-6.2225 6.04012,-12.2932 9.06018,-18.3639 3.88294,-7.7401 7.76587,-15.4802 11.50499,-23.3721 3.88294,7.8919 7.76588,15.632 11.64881,23.3721 3.02007,6.0707 6.04012,12.1414 9.06019,18.3639 0.43143,0.7588 0.86287,1.3658 1.43812,1.9729 0.57526,0.7588 1.43813,1.3659 2.301,1.8212 1.1505,0.607 2.30101,0.9106 3.4515,0.9106 2.73243,0 5.46487,-1.6694 6.903,-4.4012 7.9097,-16.6945 12.5117,-32.7817 16.9699,-48.2619 4.3143,-15.1767 8.3411,-29.291 15.3879,-44.3159 1.7258,-4.0978 0.1438,-8.9544 -3.5953,-10.9273 z"
     style="font-style:normal;font-variant:normal;font-weight:normal;font-stretch:normal;font-size:110.802px;line-height:1.25;font-family:'Sailors Diary';-inkscape-font-specification:'Sailors Diary, Normal';font-variant-ligatures:normal;font-variant-caps:normal;font-variant-numeric:normal;font-feature-settings:normal;text-align:start;letter-spacing:0px;word-spacing:0px;writing-mode:lr-tb;text-anchor:start;fill:#ffffff;fill-opacity:1;stroke:none;stroke-width:1.9786;stroke-opacity:1"
     id="path890" /><path
     d="m 1141.7331,1620.21 c -0.2876,-1.6694 -0.8628,-3.3389 -1.2942,-4.8565 -0.5753,-1.6695 -1.1505,-3.3389 -2.0134,-5.0084 -0.863,-1.5176 -1.0068,-3.4906 -1.8696,-5.16 -1.0067,-1.6695 -1.7258,-3.4907 -2.4448,-5.4636 -1.5819,-4.2495 -3.1639,-8.6507 -4.7459,-13.052 -1.4381,-4.2494 -2.7323,-8.4989 -4.3142,-12.7484 -1.5821,-4.2494 -3.4516,-8.6507 -5.0335,-12.9001 -2.7325,-7.5885 -4.7459,-15.4804 -7.6221,-22.9169 -0.8628,-2.4283 -1.7257,-4.8565 -3.4515,-6.526 -1.8695,-1.8212 -4.8896,-2.4283 -7.3344,-2.58 -4.602,-0.1518 -9.204,-0.4553 -13.806,-0.1518 -1.8696,0.1518 -3.7391,-0.1517 -5.6087,0 -2.0134,0 -4.0268,0.4553 -6.0401,0.4553 -1.4382,0 -2.7325,-0.1518 -4.0268,0 -2.4448,0.3035 -4.8896,1.6694 -6.1839,3.7943 0,0.1517 0,0.3035 -0.1438,0.4552 -0.1438,0.3036 -0.4315,0.6071 -0.5753,1.0624 -2.301,5.3119 -3.8829,10.9271 -6.1839,16.3908 -3.3077,8.1954 -6.4716,16.5425 -9.3478,25.0416 -2.0134,6.0705 -4.1706,12.1412 -6.3278,18.2119 -2.0133,5.7672 -3.7391,11.8379 -5.8963,17.6051 -1.0067,3.0353 -2.0134,5.9188 -3.02,8.9542 -0.7191,2.4282 -1.2943,5.0083 -0.2877,7.133 1.4382,3.0353 4.7458,3.4906 7.6221,3.1871 0.5752,0 1.1505,-0.1518 1.7257,-0.3035 1.582,-0.6071 2.7325,-1.8212 3.4515,-3.1871 1.2944,-2.2764 2.0134,-4.8566 3.0201,-7.133 0.7191,-1.5177 1.0067,-3.339 1.5819,-4.8566 1.7258,-4.4012 3.3077,-8.8025 5.0335,-13.2038 0.719,-2.2764 1.5819,-4.4011 2.4448,-6.526 0.1438,-0.4552 1.8696,-5.3117 2.1572,-5.4635 3.3077,-0.1517 6.6154,-0.3035 9.923,-0.1517 4.0268,0.3035 8.0535,-0.1518 11.9365,-0.1518 4.1705,-0.1517 8.3411,0.4553 12.5117,0.1518 6.3277,-0.6071 12.6554,0.607 18.9832,0.607 0.1438,0 1.4381,3.3388 1.5819,3.7941 1.1505,2.4284 1.8696,5.1601 3.1639,7.5884 0.8629,1.973 1.7258,3.946 2.301,5.9189 0.8629,2.4282 2.1571,4.5531 3.0201,6.9813 0.8629,2.58 1.8696,5.0083 2.5886,7.4366 0.719,1.9729 1.2943,3.3389 2.5886,5.0083 2.1573,2.8835 4.8896,4.4012 8.485,2.7318 3.8829,-1.8212 4.1705,-6.0707 3.4514,-10.1684 z m -74.4948,-46.4407 c -0.4314,-0.6071 0.4314,-1.6694 0.7191,-2.4282 0.5752,-1.0624 0.5752,-2.2765 1.0066,-3.4907 0.7191,-1.973 1.4382,-4.0977 2.1572,-6.2224 1.582,-3.946 2.8763,-8.0437 4.1706,-12.1414 0.4314,-1.3658 0.5753,-3.946 1.8696,-4.8565 1.1505,-0.7589 3.8829,-0.1518 5.1772,-0.1518 4.3144,0.1518 8.7726,0.3035 13.0869,0.4553 1.4382,0.1517 2.8763,0.3035 3.4515,1.6694 0.5753,1.0625 0.7191,2.5801 1.1505,3.7942 0.5753,1.6694 1.1505,2.8835 1.8696,4.4013 0.8629,1.5177 1.1505,3.1871 1.4381,4.8565 0.2877,1.5177 1.0067,2.7319 1.4381,4.2495 0,0.1518 0.1439,0.3035 0.1439,0.607 0.1438,0.3036 0.2876,0.6071 0.2876,0.9106 0.1438,0.4553 0.2876,0.9106 0.4314,1.3659 0.1438,0.6071 0.2876,1.0624 0.4315,1.6696 0.2876,0.4552 0.4314,1.0623 0.5752,1.5176 0.1438,0.607 0.2876,1.0623 0.4315,1.5176 0.1438,0.4553 0.2876,0.9106 0.5752,1.3659 0,0.3035 0.1438,0.6071 0.2876,1.0624 0.1438,0.1517 0.2876,0.3035 0.1438,0.4552 0,0 0,0.1518 -0.1438,0.1518 -0.1438,0 -0.1438,0 -0.2876,0 -0.1438,0 -0.4314,0 -0.7191,0 -0.4314,0 -0.8628,0 -1.2943,0 -0.8629,0 -1.7257,0 -2.5886,0 -0.8629,0 -1.7258,0.1518 -2.7324,0.1518 -0.8629,0 -1.7258,0 -2.5887,0 -0.8628,0 -1.7257,0 -2.5886,0 -0.8629,0 -1.7257,0 -2.5886,0 -2.5886,-0.3036 -5.0334,-0.6071 -7.6221,-0.4553 -2.7324,0.1517 -5.4648,0.1517 -8.1973,0.1517 -1.7257,0 -3.4515,0 -5.321,0 -0.8629,-0.1517 -3.4515,0.3036 -4.1706,-0.607 z"
     style="font-style:normal;font-variant:normal;font-weight:normal;font-stretch:normal;font-size:110.802px;line-height:1.25;font-family:'Sailors Diary';-inkscape-font-specification:'Sailors Diary, Normal';font-variant-ligatures:normal;font-variant-caps:normal;font-variant-numeric:normal;font-feature-settings:normal;text-align:start;letter-spacing:0px;word-spacing:0px;writing-mode:lr-tb;text-anchor:start;fill:#ffffff;fill-opacity:1;stroke:none;stroke-width:1.9786;stroke-opacity:1"
     id="path892" /><path
     d="m 1241.7704,1623.0936 c -1.4381,-4.2494 -5.7525,-6.6778 -9.7792,-5.1602 -12.9431,4.5531 -25.4548,2.2766 -37.3913,0 -7.3344,-1.3658 -14.2374,-2.5799 -20.9966,-2.4282 0,-11.2307 0,-23.6756 0.1439,-35.817 0.1438,-15.0249 0.1438,-29.5945 0.1438,-41.5841 0,-4.553 -3.4516,-8.3472 -7.6221,-8.3472 -4.3144,0 -7.7658,3.7942 -7.7658,8.3472 0,11.8378 0,26.5592 -0.1438,41.4324 -0.1439,15.6319 -0.1439,31.5676 -0.1439,45.2265 0,0 0,0.1517 0,0.1517 0,0.3036 0,0.4555 0,0.759 0,0.3035 0.1439,0.607 0.1439,1.0623 0,0 0,0 0,0 0,0.1518 0.1438,0.1518 0.1438,0.3036 0.8628,3.4905 3.8828,5.9189 7.3344,5.9189 1.1505,0 2.1571,-0.1518 3.02,-0.6072 6.4716,-1.5176 14.2374,0 23.0101,1.5178 7.4782,1.5176 15.5317,2.8835 24.0166,2.8835 6.6153,0 13.6622,-0.9106 20.9966,-3.4906 4.0268,-1.366 6.1839,-5.9189 4.8896,-10.1684 z"
     style="font-style:normal;font-variant:normal;font-weight:normal;font-stretch:normal;font-size:110.802px;line-height:1.25;font-family:'Sailors Diary';-inkscape-font-specification:'Sailors Diary, Normal';font-variant-ligatures:normal;font-variant-caps:normal;font-variant-numeric:normal;font-feature-settings:normal;text-align:start;letter-spacing:0px;word-spacing:0px;writing-mode:lr-tb;text-anchor:start;fill:#ffffff;fill-opacity:1;stroke:none;stroke-width:1.9786;stroke-opacity:1"
     id="path894" /><path
     d="m 1360.645,1580.3906 c -6.184,-39.1559 -38.5418,-55.395 -97.7926,-48.2619 -3.8828,0.4553 -6.7591,4.2494 -6.3277,8.4989 0,0.1518 0,0.3035 0.1438,0.4553 0,0.1518 0,0.1518 -0.1438,0.3035 -0.2876,14.8732 0.1438,32.63 0.5752,49.6278 0.4315,12.5967 0.7191,24.2827 0.7191,35.0582 0,3.187 1.8696,5.9189 4.4582,7.133 1.0067,0.4553 2.1572,0.9106 3.4516,0.9106 2.3009,0 5.1771,0 8.6287,0.1518 5.3211,0.1517 10.7858,0.3035 16.3945,0.3035 24.1606,0 46.8829,-2.4282 58.1003,-14.5696 10.0668,-10.7754 13.5184,-28.0769 11.7927,-39.6111 z m -22.1472,28.8357 c -10.4983,11.5342 -46.1638,10.3201 -63.8527,9.8648 -0.719,-0.1518 -1.5819,-0.1518 -2.4448,-0.1518 0,-8.9542 -0.2877,-18.3638 -0.5753,-28.3804 -0.4315,-15.0249 -0.8629,-30.3533 -0.7191,-43.8606 46.8829,-4.4013 70.8996,7.4366 75.3577,36.2723 1.2945,7.4366 -1.4381,19.578 -7.7658,26.2557 z"
     style="font-style:normal;font-variant:normal;font-weight:normal;font-stretch:normal;font-size:110.802px;line-height:1.25;font-family:'Sailors Diary';-inkscape-font-specification:'Sailors Diary, Normal';font-variant-ligatures:normal;font-variant-caps:normal;font-variant-numeric:normal;font-feature-settings:normal;text-align:start;letter-spacing:0px;word-spacing:0px;writing-mode:lr-tb;text-anchor:start;fill:#ffffff;fill-opacity:1;stroke:none;stroke-width:1.9786;stroke-opacity:1"
     id="path896" /><path
     d="m 1432.3106,1579.5964 c -10.2106,-2.7318 -20.9966,-5.6154 -26.0299,-10.9273 -0.1438,-0.1518 -0.1438,-0.3036 -0.2878,-0.4553 -4.7457,-4.4012 -3.3076,-7.2848 -2.7323,-8.4989 2.7323,-5.919 14.9564,-12.9003 29.4815,-9.8648 7.3345,1.5176 11.3612,3.3388 18.1204,7.133 3.7392,2.1247 8.3411,0.6071 10.3545,-3.4907 2.0134,-3.9459 0.5753,-8.8024 -3.3077,-10.9271 -7.1906,-3.946 -12.6555,-6.6778 -22.2909,-8.6507 -19.1271,-3.946 -39.4046,4.2494 -46.1638,18.6672 -4.4583,9.4097 -2.1572,19.7297 6.0401,27.6216 8.1973,8.4989 20.8528,11.8379 33.0769,15.1767 18.5518,4.8566 27.3243,8.1954 26.7491,17.3015 -0.2876,6.8295 -7.1906,9.8648 -12.9431,11.2307 -18.2642,4.2495 -43.1438,-3.3388 -49.1839,-15.1767 -2.0134,-3.7941 -6.7591,-5.3119 -10.4983,-3.187 -3.7392,2.1246 -5.0335,7.133 -3.02,11.0789 8.3411,15.9355 31.351,24.5863 51.7724,24.5863 5.0334,0 9.9231,-0.4553 14.2374,-1.5178 15.2442,-3.6423 24.3044,-13.0518 25.0234,-26.1038 1.2943,-23.524 -20.709,-29.291 -38.398,-33.9958 z"
     style="font-style:normal;font-variant:normal;font-weight:normal;font-stretch:normal;font-size:110.802px;line-height:1.25;font-family:'Sailors Diary';-inkscape-font-specification:'Sailors Diary, Normal';font-variant-ligatures:normal;font-variant-caps:normal;font-variant-numeric:normal;font-feature-settings:normal;text-align:start;letter-spacing:0px;word-spacing:0px;writing-mode:lr-tb;text-anchor:start;fill:#ffffff;fill-opacity:1;stroke:none;stroke-width:1.9786;stroke-opacity:1"
     id="path898" /><g
     aria-label="EST."
     transform="matrix(1.2074998,-0.16388262,0.09453665,1.4594493,-190.91425,3755.8954)"
     id="text1597"
     style="font-style:normal;font-variant:normal;font-weight:normal;font-stretch:normal;font-size:64.3501px;line-height:1.25;font-family:'Sailors Diary';-inkscape-font-specification:'Sailors Diary, Normal';font-variant-ligatures:normal;font-variant-caps:normal;font-variant-numeric:normal;font-feature-settings:normal;text-align:start;letter-spacing:0px;word-spacing:0px;writing-mode:lr-tb;text-anchor:start;fill:#ffffff;fill-opacity:1;stroke:none;stroke-width:0.861832"><path
       d="m 609.36326,-1442.3638 c -5.72716,-0.8365 -19.24068,-0.5791 -28.12099,-0.4504 -1.8018,0 -3.6036,0.064 -5.01931,0.064 -0.1287,-3.0888 -0.0643,-7.0785 0.0644,-11.2612 6.49936,-0.3861 11.51867,-0.2574 17.18148,-0.1931 4.11841,0.064 8.36551,0.1931 13.70657,0.064 1.86615,0 3.41056,-1.6088 3.41056,-3.475 -0.0643,-1.9305 -1.60876,-3.4105 -3.47491,-3.4105 0,0 -0.0643,0 -0.0643,0 -5.21236,0.064 -9.39511,0 -13.44917,-0.064 -5.46976,-0.1287 -10.61777,-0.193 -17.24583,0.1287 0.0643,-3.7966 0.0643,-7.6576 0,-11.3256 1.86616,0 4.50451,0.064 7.85072,0.1287 4.5045,0.064 10.74646,0.1287 19.17632,0.2574 0,0 0,0 0.0643,0 1.86616,0 3.41056,-1.5444 3.41056,-3.4749 0.0643,-1.8661 -1.48005,-3.4749 -3.41056,-3.4749 -8.42986,-0.064 -14.60747,-0.193 -19.11197,-0.2574 -12.03347,-0.193 -12.54827,-0.193 -13.96398,1.2227 -0.70785,0.7078 -1.09395,1.6731 -1.0296,2.6383 0.2574,6.1133 0.1287,13.3848 0,19.8199 -0.1287,6.7567 -0.19305,12.5482 0.1287,16.3449 0.32175,3.2818 3.34621,3.2818 5.85586,3.2818 1.48005,0 3.60361,-0.064 6.04891,-0.064 8.17246,-0.1931 21.81468,-0.3861 26.96269,0.3217 0.19305,0.064 0.3861,0.064 0.5148,0.064 1.67311,0 3.15316,-1.2227 3.41056,-2.9601 0.32175,-1.9305 -1.0296,-3.668 -2.89576,-3.9254 z"
       style="font-style:normal;font-variant:normal;font-weight:normal;font-stretch:normal;font-size:64.3501px;font-family:'Sailors Diary';-inkscape-font-specification:'Sailors Diary, Normal';font-variant-ligatures:normal;font-variant-caps:normal;font-variant-numeric:normal;font-feature-settings:normal;text-align:start;writing-mode:lr-tb;text-anchor:start;fill:#ffffff;fill-opacity:1;stroke-width:0.861832"
       id="path950" /><path
       d="m 643.78252,-1460.6392 c -4.56885,-1.1583 -9.39511,-2.381 -11.64737,-4.6332 -0.0643,-0.064 -0.0643,-0.1287 -0.1287,-0.1931 -2.12355,-1.8661 -1.48005,-3.0888 -1.22265,-3.6036 1.22265,-2.5096 6.69241,-5.4697 13.19177,-4.1827 3.28186,0.6435 5.08366,1.4157 8.10811,3.0244 1.67311,0.9009 3.73231,0.2574 4.63321,-1.48 0.9009,-1.6731 0.2574,-3.7323 -1.48005,-4.6332 -3.21751,-1.6731 -5.66281,-2.8314 -9.97427,-3.668 -8.55856,-1.6731 -17.63192,1.8018 -20.65638,7.9151 -1.99485,3.9897 -0.96525,8.3655 2.70271,11.7117 3.66795,3.6036 9.33076,5.0193 14.80052,6.435 8.30116,2.0592 12.22652,3.4749 11.96912,7.3359 -0.1287,2.8958 -3.21751,4.1828 -5.79151,4.7619 -8.17246,1.8018 -19.30503,-1.4157 -22.00773,-6.435 -0.90091,-1.6087 -3.02446,-2.2522 -4.69756,-1.3513 -1.6731,0.9009 -2.25225,3.0244 -1.35135,4.6975 3.7323,6.7568 14.02832,10.4247 23.16603,10.4247 2.25225,0 4.44016,-0.193 6.37066,-0.6435 6.82111,-1.5444 10.87517,-5.5341 11.19692,-11.0682 0.57915,-9.9742 -9.26642,-12.4196 -17.18148,-14.4144 z"
       style="font-style:normal;font-variant:normal;font-weight:normal;font-stretch:normal;font-size:64.3501px;font-family:'Sailors Diary';-inkscape-font-specification:'Sailors Diary, Normal';font-variant-ligatures:normal;font-variant-caps:normal;font-variant-numeric:normal;font-feature-settings:normal;text-align:start;writing-mode:lr-tb;text-anchor:start;fill:#ffffff;fill-opacity:1;stroke-width:0.861832"
       id="path952" /><path
       d="m 705.30926,-1477.1128 c -0.45045,-1.8018 -2.3166,-2.8958 -4.18276,-2.4453 -7.20721,1.9305 -16.40927,1.6087 -25.35394,1.2226 -3.2175,-0.1287 -6.1776,-0.2574 -9.13771,-0.2574 0,0 0,0 0,0 -1.86615,0 -3.41055,1.5444 -3.41055,3.4106 -0.0643,1.9305 1.48005,3.4749 3.41055,3.4749 2.76705,0 5.72716,0.1287 8.88031,0.2574 1.73746,0.064 3.53926,0.1287 5.34106,0.193 0.1287,7.4003 0.1287,14.4145 0,21.7504 0,4.054 -0.0643,8.1724 -0.0643,12.4195 0,1.9305 1.5444,3.4749 3.47491,3.4749 1.86615,0 3.41055,-1.5444 3.41055,-3.4749 0,-4.2471 0.0643,-8.3011 0.0643,-12.3552 0.0643,-7.3359 0.1287,-14.2857 0,-21.7503 5.34106,-0.064 10.48907,-0.4505 15.12228,-1.6731 1.86615,-0.5148 2.9601,-2.381 2.4453,-4.2471 z"
       style="font-style:normal;font-variant:normal;font-weight:normal;font-stretch:normal;font-size:64.3501px;font-family:'Sailors Diary';-inkscape-font-specification:'Sailors Diary, Normal';font-variant-ligatures:normal;font-variant-caps:normal;font-variant-numeric:normal;font-feature-settings:normal;text-align:start;writing-mode:lr-tb;text-anchor:start;fill:#ffffff;fill-opacity:1;stroke-width:0.861832"
       id="path954" /><path
       d="m 716.61176,-1439.3393 -0.0643,-0.1287 c -0.0643,-0.2574 -0.19305,-0.5792 -0.3861,-0.9009 -0.1287,-0.1287 -0.19305,-0.2574 -0.32175,-0.3218 -0.1287,-0.193 -0.2574,-0.2574 -0.3861,-0.3861 -0.0643,-0.064 -0.1287,-0.1287 -0.19305,-0.193 l -0.32176,0.2574 0.25741,-0.2574 v -0.064 c -0.57916,-0.4504 -1.41571,-0.7078 -2.25226,-0.6435 -0.32175,0 -0.70785,0.064 -1.0296,0.1931 -0.45045,0.193 -0.9009,0.5148 -1.287,1.0296 -0.19305,0.193 -0.32175,0.3217 -0.45045,0.5791 0,0.1287 -0.0643,0.1931 -0.1287,0.3218 -0.0643,0.1287 -0.19305,0.2574 -0.19305,0.3861 -0.1287,0.2574 -0.19305,0.5791 -0.19305,0.8365 -0.0643,0.3218 0,0.6435 0.0643,0.9653 v 0.1287 c 0.1287,0.5148 0.32175,0.9652 0.6435,1.3513 l 0.0643,0.1287 c 0.0643,0.064 0.1287,0.1931 0.2574,0.3218 0.5148,0.4504 1.09395,0.7722 1.6731,0.9009 0.19305,0.064 0.5148,0.1287 0.7722,0.1287 0.19305,0 0.3861,-0.064 0.5148,-0.064 l 0.2574,-0.064 c 0.2574,-0.064 0.45045,-0.064 0.70785,-0.1931 0.2574,-0.1287 0.51481,-0.2574 0.77221,-0.4504 0.1287,-0.1287 0.2574,-0.3218 0.3861,-0.4505 l 0.1287,-0.193 c 0.3861,-0.3861 0.7722,-0.9653 0.7722,-1.6731 0,-0.1931 0,-0.3218 0.0643,-0.5148 v -0.2574 c 0.0643,-0.3218 0,-0.5148 -0.1287,-0.7722 z"
       style="font-style:normal;font-variant:normal;font-weight:normal;font-stretch:normal;font-size:64.3501px;font-family:'Sailors Diary';-inkscape-font-specification:'Sailors Diary, Normal';font-variant-ligatures:normal;font-variant-caps:normal;font-variant-numeric:normal;font-feature-settings:normal;text-align:start;writing-mode:lr-tb;text-anchor:start;fill:#ffffff;fill-opacity:1;stroke-width:0.861832"
       id="path956" /></g><g
     aria-label="2019"
     transform="matrix(1.2010915,0.20565139,-0.34733974,1.4206634,-190.91425,3755.8954)"
     id="text1601"
     style="font-style:normal;font-variant:normal;font-weight:normal;font-stretch:normal;font-size:64.5437px;line-height:1.25;font-family:'Sailors Diary';-inkscape-font-specification:'Sailors Diary, Normal';font-variant-ligatures:normal;font-variant-caps:normal;font-variant-numeric:normal;font-feature-settings:normal;text-align:start;letter-spacing:0px;word-spacing:0px;writing-mode:lr-tb;text-anchor:start;fill:#ffffff;fill-opacity:1;stroke:none;stroke-width:0.864425"><path
       d="m 1033.2175,-1700.3862 c -0.4518,-1.4199 -0.8391,-2.0654 -2.1945,-2.6463 -1.2909,-0.6454 -2.5172,-0.7745 -3.8726,-0.9681 -1.2909,-0.1937 -2.5818,-0.1291 -3.8726,-0.1291 -1.6782,-0.065 -3.4209,0.1936 -5.0345,0.4518 -0.9036,0.1936 -1.7426,0.1936 -2.5817,0.1936 -0.4518,0 -0.9036,0 -1.2909,0 -0.3227,0 -0.839,0.1291 -1.0972,-0.064 0,-0.5164 0.5163,-0.9036 0.7745,-1.2264 0.4518,-0.5163 0.9682,-1.0327 1.42,-1.549 1.1618,-1.3554 2.4526,-2.6463 3.7435,-3.9372 1.6136,-1.6136 3.1626,-3.2917 4.7117,-4.9053 1.0327,-0.9681 2.1945,-1.8072 3.0335,-2.9045 1.2264,-1.4845 2.7754,-2.7108 3.4854,-4.4535 0.4518,-1.1618 0.9036,-2.0654 1.0973,-3.2917 0.1936,-1.0972 0.2581,-2.1299 0.1936,-3.2917 -0.1291,-0.9682 0.064,-1.8718 -0.3873,-2.7109 -0.5163,-0.9681 -1.0327,-1.9363 -1.549,-2.9044 -0.3873,-0.8391 -0.9682,-1.4845 -1.6136,-2.1945 -0.8391,-0.8391 -1.6136,-1.5491 -2.7109,-2.13 -0.7745,-0.3872 -1.549,-0.7099 -2.3881,-1.0972 -0.9036,-0.4518 -1.7427,-0.5809 -2.7108,-0.71 -1.5491,-0.1291 -3.1627,-0.1291 -4.7117,-0.064 -0.71,0.064 -1.3554,0.064 -2.0009,0.2582 -1.9363,0.5808 -3.7435,1.0972 -5.4862,2.259 -0.9681,0.71 -1.6781,1.3554 -2.4526,2.3236 -0.5164,0.6454 -0.8391,1.3554 -1.2909,2.1299 -0.7745,1.2909 -0.7745,3.1626 0.1291,4.4535 0.5809,0.7745 1.6136,1.0973 2.5817,1.0327 0.6455,0 1.2909,-0.3873 1.7427,-0.7745 0.3227,-0.3227 0.5809,-0.6455 0.8391,-1.0327 1.0972,-1.8718 2.0008,-3.4208 4.2599,-4.0017 1.0972,-0.2582 2.3881,-0.4518 3.5499,-0.4518 0.7099,0.065 1.3554,0.2581 2.0654,0.5163 0.5163,0.1937 1.0327,0.3873 1.4845,0.71 1.9363,1.0327 3.2917,2.5172 3.5499,4.7117 0.1291,0.9681 0.1291,1.8718 -0.1937,2.7754 -0.129,0.4518 -0.1936,0.71 -0.4518,1.0972 -0.5163,0.6455 -0.9681,1.2263 -1.4845,1.8072 -0.3227,0.5164 -0.7099,0.9682 -1.1618,1.42 -1.0327,1.0327 -2.1299,2.0654 -3.1626,3.0981 -0.6454,0.71 -1.2909,1.2909 -2.0009,1.8718 -0.6454,0.5163 -1.2908,1.0972 -1.8717,1.7426 -0.6455,0.71 -1.4845,1.2264 -2.13,1.9364 -1.2908,1.4199 -2.6463,2.8399 -3.8726,4.2598 -1.2263,1.42 -2.3236,2.9045 -3.4853,4.3245 -0.71,0.839 -1.5491,1.6136 -2.0654,2.5817 -0.2582,0.3873 -0.5809,0.71 -0.71,1.1618 -0.1937,0.9036 -0.1937,1.8072 0.3227,2.5817 0.5809,0.9682 1.4845,1.4846 2.5817,1.6782 1.0973,0.2582 2.2591,-0.065 3.3563,-0.065 1.2909,-0.064 2.5818,0 3.8726,-0.064 1.2909,0 2.6463,-0.1291 3.9372,-0.1936 1.3554,-0.065 2.7108,-0.4518 4.0017,-0.5164 1.5491,-0.064 3.0336,-0.2582 4.5181,-0.3227 1.4199,-0.065 2.6463,0.1936 4.0017,0.5809 0.7745,0.1936 1.3554,0.3873 2.1299,0.1291 0.7746,-0.2582 1.6136,-0.71 2.0654,-1.42 0.3873,-0.5809 0.6455,-1.3554 0.3873,-2.0654 z"
       style="font-style:normal;font-variant:normal;font-weight:normal;font-stretch:normal;font-size:64.5437px;font-family:'Sailors Diary';-inkscape-font-specification:'Sailors Diary, Normal';font-variant-ligatures:normal;font-variant-caps:normal;font-variant-numeric:normal;font-feature-settings:normal;text-align:start;writing-mode:lr-tb;text-anchor:start;fill:#ffffff;fill-opacity:1;stroke-width:0.864425"
       id="path959" /><path
       d="m 1079.0677,-1719.1039 c 0.065,-1.2263 -0.064,-2.1944 -0.1936,-3.3562 -0.065,-1.1618 0.064,-2.1945 -0.3227,-3.2918 -0.3873,-1.4199 -1.0327,-2.8399 -1.3554,-4.2598 -0.2582,-0.9037 -0.5809,-1.8073 -1.0973,-2.5818 -0.3873,-0.6454 -0.9036,-1.1618 -1.2263,-1.8072 -0.3227,-0.6454 -0.71,-1.1618 -1.1618,-1.6136 -0.71,-0.7745 -1.42,-1.42 -2.1945,-2.0654 -0.71,-0.6454 -1.6781,-1.1618 -2.5817,-1.6136 -1.8718,-0.9036 -3.7436,-1.6136 -5.809,-1.8718 -0.5809,-0.129 -1.0327,-0.3227 -1.6136,-0.3872 -0.5809,-0.065 -1.0972,0 -1.6781,0.064 -1.8718,0.065 -3.6145,0.2582 -5.4217,0.8391 -2.0008,0.6454 -3.679,1.7427 -5.228,3.0981 -0.7745,0.71 -1.4845,1.4845 -2.1945,2.1299 -0.7745,0.71 -1.42,1.2909 -1.8718,2.2591 -0.3872,0.839 -0.7745,1.6136 -1.1618,2.4526 -1.0327,2.259 -1.6781,4.6472 -2.1299,7.0998 -0.1936,1.0973 -0.1936,2.2591 -0.2582,3.3563 -0.1291,1.3554 -0.2581,2.9045 -0.1291,4.2599 0.1291,1.2263 0.5809,2.3881 0.7746,3.5499 0.1936,1.3554 0.4518,2.6463 1.0327,3.8726 0.9681,2.0654 1.6781,4.1953 3.0335,6.1317 1.2909,1.8072 2.7109,3.4208 4.5826,4.5826 0.8391,0.5809 1.8072,1.0972 2.8399,1.4199 0.9037,0.3227 1.8718,0.71 2.84,0.9036 1.0327,0.2582 2.0008,0.2582 3.0335,0.1937 0.5809,0 1.2264,0 1.8718,0 0.5809,0 1.0972,-0.065 1.6136,-0.1937 3.5499,-0.839 7.5516,-2.5817 9.8752,-5.4862 1.0972,-1.2909 2.259,-2.7108 3.2917,-4.1308 1.4845,-2.1299 2.259,-4.9698 2.3881,-7.5516 0.065,-0.9036 0.4518,-1.6781 0.4518,-2.5817 0,-1.1618 -0.064,-2.2591 0,-3.4209 z m -6.9707,2.1945 c -0.1936,1.6136 -0.1291,3.0981 -0.5164,4.6472 -0.3227,1.2263 -0.6454,2.4526 -1.0972,3.679 -0.5809,1.2263 -1.42,2.1299 -2.3236,3.0335 -2.1945,2.13 -5.6153,3.1627 -8.6488,3.2918 -2.3881,0.129 -4.7763,-1.0327 -6.4544,-2.6463 -1.2909,-1.2264 -2.5172,-2.9045 -3.0335,-4.5826 -0.2582,-0.7746 -0.3228,-1.6136 -0.6455,-2.3236 -0.2582,-0.5809 -0.5163,-1.0327 -0.6454,-1.6782 -0.2582,-1.6781 -0.6455,-3.3562 -0.6455,-5.0989 0,-1.6136 0.1291,-3.3563 0.5164,-4.9053 0.1291,-0.8391 0.3227,-1.5491 0.4518,-2.3881 0.1291,-1.0327 0.3873,-2.0654 0.8391,-3.0336 0.2581,-0.6454 0.6454,-1.2909 1.0972,-1.8072 0.4518,-0.5164 1.0327,-0.7745 1.42,-1.2909 0.5809,-0.6454 1.0972,-1.2263 1.8072,-1.7427 1.0327,-0.6454 1.8718,-0.839 3.0335,-1.1618 0.8391,-0.2581 1.6782,-0.4518 2.5818,-0.4518 0.4518,0 0.9036,0 1.42,0 1.7426,0.1937 3.3562,0.9036 4.9053,1.7427 1.2263,0.71 2.1945,1.8072 2.8399,3.0981 0.4518,0.9036 1.0972,1.8718 1.4845,2.8399 0.9036,2.3236 1.7427,5.0344 1.6136,7.5516 -0.064,1.0973 0.064,2.1945 0,3.2272 z"
       style="font-style:normal;font-variant:normal;font-weight:normal;font-stretch:normal;font-size:64.5437px;font-family:'Sailors Diary';-inkscape-font-specification:'Sailors Diary, Normal';font-variant-ligatures:normal;font-variant-caps:normal;font-variant-numeric:normal;font-feature-settings:normal;text-align:start;writing-mode:lr-tb;text-anchor:start;fill:#ffffff;fill-opacity:1;stroke-width:0.864425"
       id="path961" /><path
       d="m 1105.5942,-1702.1289 c -0.1291,-0.5809 0.064,-1.1617 0.064,-1.7426 0,-0.6455 -0.1291,-1.3555 -0.1291,-2.0009 -0.065,-2.5817 -0.3872,-5.228 -0.1291,-7.8098 0.1291,-1.2263 0.1291,-2.4526 0.065,-3.679 -0.065,-0.9681 0.1291,-1.9363 -0.1291,-2.9044 -0.1936,-0.6455 -0.064,-0.9037 0,-1.5491 0.1291,-1.0972 -0.064,-2.259 0,-3.2917 0,-2.3236 0.3227,-4.6472 -0.1291,-6.9707 -0.1291,-0.8391 0.1291,-1.5491 0.1291,-2.3882 -0.064,-0.9036 -0.1291,-1.8717 -0.2582,-2.7753 0,-0.1291 0,-0.1937 0,-0.3228 -0.1291,-0.5808 -0.4518,-1.0972 -0.9036,-1.4845 -0.5163,-0.5809 -1.1618,-1.0327 -2.0008,-1.1617 -0.7746,-0.1291 -1.6136,-0.1291 -2.4527,-0.065 -0.3873,0 -0.7745,0.1291 -1.2263,0.1936 -0.5809,0.1291 -1.2264,0.2582 -1.8718,0.3228 -0.5163,0.129 -1.0972,0.3227 -1.6136,0.4518 -1.4845,0.4518 -2.969,0.6454 -4.389,1.2263 -0.839,0.3227 -1.6136,0.4518 -2.259,1.1618 -0.2582,0.2582 -0.5809,0.4518 -0.6454,0.8391 -0.3873,1.2263 -0.5164,2.5172 0.4518,3.5499 0.1936,0.2581 0.5163,0.3872 0.7745,0.5163 0.1291,0.065 0.2582,0.1291 0.3873,0.1936 0.129,0.065 0.2581,0.065 0.3227,0.065 0.1936,0.064 0.3872,0.064 0.5163,0.1291 0.3227,0.064 0.6455,0.1291 0.9036,0.064 0.1937,0 0.3873,0 0.5164,0 0.3227,-0.064 0.5809,-0.1291 0.9036,-0.1936 0.2582,-0.065 0.5164,-0.1936 0.7745,-0.2582 0.5809,-0.1291 1.0973,-0.3227 1.6782,-0.4518 0.4518,-0.1291 0.9036,-0.2582 1.3554,-0.3227 0.1936,-0.065 0.3872,-0.1291 0.5809,-0.1936 0.2581,-0.065 0.4518,-0.1291 0.6454,-0.1291 0.1936,-0.065 0.5164,-0.1291 0.6454,0 0.065,0.064 0.065,0.1291 0.065,0.1936 0,0.1936 0,0.3873 0,0.5809 0,0.5163 0.064,0.9681 0.064,1.4199 0,0.5164 0.1291,1.0327 0.1937,1.4846 0.1291,2.8399 0.1291,5.6153 0.1291,8.3906 0,0.7746 -0.065,2.3236 0,3.3563 0,0.7745 -0.065,1.6136 -0.065,2.3881 0,0.7745 0.2582,1.4845 0.2582,2.1945 0,1.6781 -0.1936,3.4208 -0.1936,5.099 0,1.4199 0,2.8399 0.065,4.2598 0.064,1.2909 -0.065,2.6463 0.1936,3.9372 0.2582,1.0973 0.3873,2.259 1.3554,2.969 1.3555,1.0327 3.679,0.7745 4.9054,-0.4518 0.5809,-0.5809 0.4518,-1.4199 0.5163,-2.0654 0,-1.0327 0.065,-1.7427 -0.064,-2.7754 z"
       style="font-style:normal;font-variant:normal;font-weight:normal;font-stretch:normal;font-size:64.5437px;font-family:'Sailors Diary';-inkscape-font-specification:'Sailors Diary, Normal';font-variant-ligatures:normal;font-variant-caps:normal;font-variant-numeric:normal;font-feature-settings:normal;text-align:start;writing-mode:lr-tb;text-anchor:start;fill:#ffffff;fill-opacity:1;stroke-width:0.864425"
       id="path963" /><path
       d="m 1143.5933,-1730.4635 c -0.5164,-2.2591 -1.9363,-4.2599 -3.5499,-5.809 -1.1618,-1.2263 -2.3882,-2.3236 -4.0017,-2.9044 -0.7746,-0.3228 -1.4845,-0.6455 -2.2591,-0.7746 -0.71,-0.1291 -1.4199,-0.3227 -2.1945,-0.3227 -0.7745,-0.064 -1.549,0 -2.3235,0 -0.8391,0.065 -1.6136,0.2582 -2.4527,0.3227 -1.2263,0.1291 -2.259,0.9036 -3.3563,1.2909 -0.6454,0.2582 -1.0972,0.5164 -1.6781,0.9036 -0.71,0.5164 -1.3554,1.0327 -2.0654,1.6782 -0.71,0.6454 -1.3554,1.4199 -1.9363,2.1944 -0.2582,0.3228 -0.6454,0.6455 -0.8391,1.0327 -0.2582,0.3873 -0.5163,0.9037 -0.7745,1.3555 -0.1291,0.3227 -0.3227,0.5808 -0.4518,0.9036 -0.3873,0.9036 -0.4518,1.8072 -0.5809,2.7108 -0.1291,0.9682 -0.3873,1.9363 -0.3227,2.9045 0.064,2.0008 0.2582,4.0662 1.0972,5.8734 0.7745,1.8073 1.6782,3.8727 3.2918,5.099 0.5808,0.4518 1.2263,0.9036 1.9363,1.2909 0.1936,0.064 0.3872,0.1936 0.5809,0.2581 2.5172,1.2264 4.9698,1.8073 7.8743,1.2909 1.9363,-0.3872 4.1308,-0.9681 5.8089,-2.1299 0.1937,-0.1291 0.4518,-0.4518 0.71,-0.4518 -0.1936,0.4518 -0.4518,0.9036 -0.6454,1.2908 -0.2582,0.3873 -0.5164,0.7746 -0.71,1.1618 -0.5164,0.9036 -1.2263,1.7427 -1.8072,2.6463 -0.5164,0.7746 -1.3555,1.42 -2.0654,2.0654 -1.6136,1.6782 -3.8727,2.7754 -5.8735,3.8081 -1.4845,0.7745 -3.0336,1.1618 -4.5826,1.5491 -0.7745,0.1936 -1.6782,0.3227 -2.3236,0.839 -0.6454,0.4518 -1.2909,0.9036 -1.6781,1.5491 -0.4518,0.6454 -0.4518,1.4199 -0.2582,2.0654 0.1936,0.7745 0.71,1.2908 1.4845,1.549 0.3873,0.1291 0.8391,0.1936 1.2909,0.1936 3.0335,0 5.938,-0.9036 8.7134,-2.3235 0.9036,-0.4518 1.7427,-0.9682 2.6463,-1.4845 0.5163,-0.3227 1.0327,-0.6455 1.549,-1.0327 0.4518,-0.3227 0.9036,-0.6455 1.3554,-0.9682 1.1618,-0.8391 2.4527,-1.8072 3.4208,-2.9045 0.5809,-0.6454 1.0973,-1.3554 1.7427,-2.0008 0.4518,-0.5164 0.7746,-1.2263 1.1618,-1.8072 0.3227,-0.4518 0.5809,-0.9036 0.9036,-1.3554 0.3227,-0.5809 0.6455,-1.2264 0.9682,-1.8073 0.064,-0.1936 0.1291,-0.3872 0.2582,-0.6454 0.3227,-0.8391 0.7099,-1.6136 0.9681,-2.5172 0.2582,-0.7745 0.5164,-1.6136 0.71,-2.3881 0.2582,-1.2909 0.4518,-2.6463 0.5809,-3.9372 0.1936,-1.6781 0.3227,-3.2917 0.3227,-5.0344 -0.065,-1.7427 -0.3227,-3.4854 -0.6454,-5.228 z m -6.4544,5.228 c -0.1936,0.3227 -0.1936,0.8391 -0.3227,1.0972 -0.4518,1.2264 -1.1618,2.2591 -1.8718,3.2918 -0.3872,0.5809 -0.6454,0.9681 -1.2263,1.3554 -1.0973,0.8391 -2.13,1.8072 -3.6145,2.0008 -1.8072,0.1937 -3.4208,0.3873 -5.0344,-0.5809 -0.839,-0.5163 -1.4199,-1.0327 -2.1299,-1.6781 -0.5809,-0.5809 -1.0973,-1.2263 -1.42,-2.0008 -0.4518,-0.7746 -0.4518,-1.3555 -0.4518,-2.2591 -0.065,-0.9681 -0.1291,-1.9363 -0.065,-2.9044 0.1291,-0.9682 0.5809,-1.8073 1.0972,-2.6463 1.0327,-1.7427 2.4527,-2.969 4.1954,-3.9372 0.5163,-0.2582 1.0327,-0.4518 1.6135,-0.5809 0.4519,-0.064 0.8391,-0.1291 1.2264,-0.1936 0.3227,-0.065 0.5809,-0.065 0.9036,0 0.71,0.064 1.3554,0.3227 2.0654,0.5163 0.9681,0.2582 1.9363,0.8391 2.7108,1.42 0.8391,0.5809 1.3554,1.4845 1.8072,2.3881 0.3228,0.5809 0.4519,1.0972 0.6455,1.6781 0.064,0.3228 0.1291,0.6455 0.1936,0.9682 0.065,0.5163 0.1291,0.9036 0.1936,1.42 0,0.129 -0.3227,0.3872 -0.5163,0.6454 z"
       style="font-style:normal;font-variant:normal;font-weight:normal;font-stretch:normal;font-size:64.5437px;font-family:'Sailors Diary';-inkscape-font-specification:'Sailors Diary, Normal';font-variant-ligatures:normal;font-variant-caps:normal;font-variant-numeric:normal;font-feature-settings:normal;text-align:start;writing-mode:lr-tb;text-anchor:start;fill:#ffffff;fill-opacity:1;stroke-width:0.864425"
       id="path965" /></g></svg>
