<?xml version="1.0" encoding="UTF-8" standalone="no"?>
<svg
   xmlns:dc="http://purl.org/dc/elements/1.1/"
   xmlns:cc="http://creativecommons.org/ns#"
   xmlns:rdf="http://www.w3.org/1999/02/22-rdf-syntax-ns#"
   xmlns:svg="http://www.w3.org/2000/svg"
   xmlns="http://www.w3.org/2000/svg"
   viewBox="0 0 2143.8284 1889.2011"
   height="1889.2012"
   width="2143.8284"
   xml:space="preserve"
   id="svg29"
   version="1.1"><metadata
     id="metadata35"><rdf:RDF><cc:Work
         rdf:about=""><dc:format>image/svg+xml</dc:format><dc:type
           rdf:resource="http://purl.org/dc/dcmitype/StillImage" /><dc:title></dc:title></cc:Work></rdf:RDF></metadata><defs
     id="defs33"><clipPath
       id="clipPath45"
       clipPathUnits="userSpaceOnUse"><path
         id="path43"
         d="M 0.378,0 H 1864 V 1874 H 0.378 Z" /></clipPath><clipPath
       id="clipPath59"
       clipPathUnits="userSpaceOnUse"><path
         id="path57"
         d="M 0,1874 H 1864 V 0 H 0 Z" /></clipPath></defs><g
     style="display:inline"
     transform="matrix(1.3333333,0,0,-1.3333333,-198.76021,1824.8157)"
     id="g1603"><g
       style="display:inline"
       transform="rotate(5.9227318,-6388.5404,5766.6788)"
       id="g1477"><path
         id="path1475"
         style="display:inline;fill:#000000;fill-opacity:1;fill-rule:nonzero;stroke:none"
         d="m 0,0 c -0.003,0.017 -0.005,0.034 -0.005,0.052 -0.266,26.847 -24.866,95.648 -20.067,102.539 0.037,0.054 0.078,0.098 0.124,0.144 28.882,28.649 102.32,98.755 102.32,98.755 0,0 96.351,98.132 152.564,71.508 0.744,-0.352 1.527,0.378 1.246,1.153 -14.472,39.773 -67.568,67.354 -73.235,70.205 -0.304,0.153 -0.663,0.122 -0.94,-0.075 L 80.259,286.112 c -0.014,-0.009 -0.02,-0.014 -0.034,-0.023 -1.537,-0.975 -130.393,-82.671 -138.329,-87.769 -7.982,-5.128 -24.982,-9.128 -67.448,16.554 -14.924,9.025 -43.436,69.1 -18.84,68.317 26.78,-0.866 72.306,-6.999 80.444,8.916 4.132,8.08 9.953,14.204 19.279,13.445 53.583,-4.36 66.141,23.191 68.044,34.562 6.537,39.068 -38.966,63.968 -74.415,80.981 -0.02,0.009 -0.039,0.018 -0.06,0.026 -22.481,9.103 -54.906,14.881 -72.023,20.382 -0.48,0.154 -0.741,0.665 -0.582,1.144 5.702,17.227 61.837,116.658 71.585,133.488 0.023,0.04 0.042,0.079 0.059,0.121 3.64,9 1.904,16.707 13.975,17.936 45.954,4.682 29,118 -15.749,70.407 -28.872,-30.707 -134.169,-187.113 -140.807,-196.984 -0.199,-0.298 -0.55,-0.45 -0.903,-0.392 -2.839,0.467 -15.548,2.421 -23.738,1.375 -0.302,-0.039 -0.597,0.072 -0.799,0.3 -33.174,37.417 -61.195,75.731 -99.623,108.344 -0.09,0.077 -0.198,0.138 -0.31,0.177 -34.213,11.955 -12.921,-39.184 -1.144,-53.141 0.05,-0.058 0.091,-0.122 0.124,-0.191 6.695,-13.704 -14.133,-22.531 10.693,-44.915 0.096,-0.087 0.175,-0.197 0.225,-0.316 14.435,-33.937 58.542,-25.767 30.346,-62.973 -101.238,-133.589 -94.623,-265.249 -89.847,-301.115 0.008,-0.056 0.008,-0.11 0.003,-0.166 -0.423,-4.5 3.437,-9.077 7.386,-11.031 39.129,-19.372 69.529,-106.6 74.529,-146.876 0.004,-0.028 0.006,-0.057 0.007,-0.086 3.138,-77.082 -24.803,-220.458 -24.836,-220.613 -15.557,-72.804 30.443,-133.804 44.443,-149.804 0.19,-0.217 8,-8 38.493,-39.547 0.032,-0.033 0.061,-0.07 0.087,-0.107 19.36,-28.5 26.563,-46.284 23.608,-78.168 -0.003,-0.032 -0.008,-0.065 -0.015,-0.098 -16.174,-77.08 -82.232,-87.475 -103.173,-90.08 -0.462,-0.057 -50.973,7.596 -69,-12 -46,-50 43.081,-43.762 43.541,-43.806 5.195,-0.489 61.331,10.236 128.459,91.806 6.413,7.793 38,67 -2.277,127.659 -17.429,26.249 -35.114,39.286 -52.196,63.854 -0.276,0.398 -0.198,0.951 0.177,1.257 10.238,8.382 10.563,8.777 19.048,-2.24 0.093,-0.121 23.248,-30.53 72.795,-18.68 0.041,0.01 0.085,0.001 0.127,0.006 47.471,5.131 103.636,11.017 107.903,-47.232 0.011,-0.162 0.131,-0.294 0.162,-0.453 5.261,-27.171 15.261,-37.171 24.659,-73.325 11.602,-1.846 46.602,-65.846 110.727,-109.654 0.063,-0.043 17.875,-11.192 0.178,-58.271 -0.017,-0.044 0.041,-0.087 0.064,-0.128 24.213,-42.199 51.119,-22.106 45.633,19.207 -0.013,0.094 -2.406,35.246 -2.426,35.416 -3.574,31.584 -14.574,35.584 -14.574,35.584 -11.622,-3.412 -13.346,10.818 -22.158,15.812 -37.875,22.593 -52.343,78.177 -72.842,115.188 -0.262,0.472 -3,9 12.976,-0.736 9.048,-5.515 61.876,-39.023 64.343,-37.671 11.681,6.407 33.377,-12.544 26.574,-27.113 -4.893,-10.48 -2.015,-16.888 -1.893,-17.48 8.524,-41.32 47.926,-14.154 48.03,-13.741 4.97,19.741 -17.034,61.848 -17.753,63.831 -2.841,7.843 -7.504,16.308 -15.555,18.491 -34.722,9.419 -59.235,32.36 -59.655,32.684 -63.067,48.735 -54.551,91.501 -54.523,91.677 10.456,65.058 -40.965,139.595 -41.034,139.741 C -32.271,-226.397 21.914,-124.808 0,0" /></g><g
       style="display:inline;fill:#000000;fill-opacity:1"
       transform="rotate(-5,8492.6759,-14895.584)"
       id="g1481"><path
         id="path1479"
         style="display:inline;fill:#000000;fill-opacity:1;fill-rule:nonzero;stroke:none"
         d="m 0,0 c 0.003,0.017 0.005,0.034 0.005,0.052 0.266,26.847 24.866,95.648 20.067,102.539 -0.037,0.054 -0.078,0.098 -0.124,0.144 -28.882,28.649 -102.32,98.755 -102.32,98.755 0,0 -96.351,98.132 -152.564,71.508 -0.744,-0.352 -1.527,0.378 -1.246,1.153 14.472,39.773 67.568,67.354 73.235,70.205 0.304,0.153 0.663,0.122 0.94,-0.075 l 81.748,-58.169 c 0.014,-0.009 0.021,-0.014 0.034,-0.023 1.538,-0.975 130.393,-82.671 138.329,-87.769 7.982,-5.128 24.982,-9.128 67.448,16.554 14.924,9.025 43.436,69.1 18.84,68.317 -26.779,-0.866 -72.306,-6.999 -80.444,8.916 -4.132,8.08 -9.953,14.204 -19.279,13.445 -53.583,-4.36 -66.141,23.191 -68.044,34.562 -6.537,39.068 38.966,63.968 74.415,80.981 0.02,0.009 0.039,0.018 0.06,0.026 22.481,9.103 54.906,14.881 72.023,20.382 0.481,0.154 0.741,0.665 0.583,1.144 -5.703,17.227 -61.838,116.658 -71.586,133.488 -0.023,0.04 -0.042,0.079 -0.059,0.121 -3.64,9 -1.904,16.707 -13.975,17.936 -45.954,4.682 -29,118 15.75,70.407 28.871,-30.707 134.168,-187.113 140.806,-196.984 0.199,-0.298 0.55,-0.45 0.903,-0.392 2.839,0.467 15.548,2.421 23.738,1.375 0.302,-0.039 0.597,0.072 0.799,0.3 33.174,37.417 61.195,75.731 99.623,108.344 0.091,0.077 0.198,0.138 0.31,0.177 34.213,11.955 12.921,-39.184 1.144,-53.141 -0.05,-0.058 -0.091,-0.122 -0.124,-0.191 -6.694,-13.704 14.134,-22.531 -10.693,-44.915 -0.096,-0.087 -0.175,-0.197 -0.226,-0.316 -14.433,-33.937 -58.541,-25.767 -30.345,-62.973 101.239,-133.589 94.624,-265.249 89.846,-301.115 -0.007,-0.056 -0.008,-0.11 -0.002,-0.166 0.422,-4.5 -3.437,-9.077 -7.386,-11.031 C 323.101,84.199 292.7,-3.029 287.7,-43.305 c -0.004,-0.028 -0.006,-0.057 -0.007,-0.086 -3.138,-77.082 24.803,-220.458 24.836,-220.613 15.558,-72.804 -30.442,-133.804 -44.443,-149.804 -0.19,-0.217 -8,-8 -38.493,-39.547 -0.032,-0.033 -0.061,-0.07 -0.087,-0.107 -19.36,-28.5 -26.563,-46.284 -23.608,-78.168 0.003,-0.032 0.008,-0.065 0.015,-0.098 16.174,-77.08 82.232,-87.475 103.174,-90.08 0.462,-0.057 50.972,7.596 69,-12 46,-50 -43.082,-43.762 -43.542,-43.806 -5.195,-0.489 -61.331,10.236 -128.459,91.806 -6.413,7.793 -38,67 2.277,127.659 17.429,26.249 35.114,39.286 52.197,63.854 0.275,0.398 0.197,0.951 -0.178,1.257 -10.238,8.382 -10.563,8.777 -19.048,-2.24 -0.093,-0.121 -23.248,-30.53 -72.795,-18.68 -0.041,0.01 -0.085,0.001 -0.127,0.006 -47.471,5.131 -103.636,11.017 -107.903,-47.232 -0.011,-0.162 -0.131,-0.294 -0.162,-0.453 -5.261,-27.171 -15.261,-37.171 -24.659,-73.325 -11.602,-1.846 -46.602,-65.846 -110.727,-109.654 -0.063,-0.043 -17.875,-11.192 -0.178,-58.271 0.017,-0.044 -0.04,-0.087 -0.064,-0.128 -24.213,-42.199 -51.119,-22.106 -45.633,19.207 0.013,0.094 2.406,35.246 2.426,35.416 3.574,31.584 14.574,35.584 14.574,35.584 11.623,-3.412 13.346,10.818 22.158,15.812 37.875,22.593 52.343,78.177 72.842,115.188 0.262,0.472 3,9 -12.976,-0.736 -9.047,-5.515 -61.876,-39.023 -64.343,-37.671 -11.681,6.407 -33.377,-12.544 -26.574,-27.113 4.893,-10.48 2.015,-16.888 1.893,-17.48 -8.524,-41.32 -47.925,-14.154 -48.029,-13.741 -4.971,19.741 17.033,61.848 17.752,63.831 2.841,7.843 7.504,16.308 15.555,18.491 34.722,9.419 59.235,32.36 59.655,32.684 63.067,48.735 54.551,91.501 54.523,91.677 -10.456,65.058 40.965,139.595 41.034,139.741 C 32.271,-226.397 -21.914,-124.808 0,0" /></g><g
       style="display:inline"
       transform="translate(773.39864,1134.4284)"
       id="g1485"><path
         id="path1483"
         style="display:inline;fill:#000000;fill-opacity:1;fill-rule:nonzero;stroke:none"
         d="m 0,0 c 100.137,-55.973 253.584,-63.03 343.948,5.408 -15.412,54.201 -12.742,138.051 -68.483,166.638 -41.413,3.245 -73.401,-39.429 -115.013,-33.55 -34.806,6.33 -72.738,50.929 -107.483,28.737 C 17.582,123.287 2.078,55.281 0,0 m 428.041,-101.732 c -87.08,-150.04 -440.364,-140.833 -513.428,7.367 -11.21,50.182 31.619,77.933 73.36,92.394 -3.67,-23.994 -7.145,-47.867 11.668,-66.464 77.45,-58.217 312.498,-73.98 357.024,26.768 2.305,13.155 -0.43,25.275 -2.876,38.197 41.143,-12.489 94.967,-49.186 74.252,-98.262" /></g><g
       style="display:inline"
       transform="matrix(3.7456123,0,0,-3.1748965,472.93161,1032.0472)"
       id="g1505"><g
         class="layer"
         id="g1493"
         transform="translate(0.24805302,0.75650417)"
         style="display:inline;fill:#ffffff;fill-opacity:1;stroke:#000000;stroke-opacity:1"><title
           id="title1489">Layer 1</title><path
           d="M 2.845387,50.888141 C 105.0612,47.958241 125,2.8748006 125,2.8748006 c 0,0 17.692,45.3638604 124.32589,49.9338404 C 248.13927,157.83201 189.75355,251.26994 125,332.34707 59.775216,241.96094 4.2091059,144.829 2.845387,50.888141 Z"
           id="path1491"
           style="clip-rule:evenodd;display:inline;fill:#ffffff;fill-opacity:1;fill-rule:evenodd;stroke:#ffffff;stroke-width:5;stroke-opacity:1" /></g><g
         transform="matrix(0.91955986,0,0,0.91955986,10.390065,14.143576)"
         id="g1503"
         class="layer"
         style="display:inline;fill:#000000;fill-opacity:1"><title
           id="title1499">Layer 1</title><path
           style="clip-rule:evenodd;display:inline;fill:#000000;fill-opacity:1;fill-rule:evenodd;stroke:#000000;stroke-width:5.26559448;stroke-linejoin:round;stroke-miterlimit:4;stroke-dasharray:none"
           id="path1501"
           d="M -3.6977199,44.691056 C 103.94496,41.605601 124.94237,-5.871424 124.94237,-5.871424 c 0,0 18.63129,47.772332 130.92662,52.584944 C 254.61938,157.31281 193.13384,255.71157 124.94237,341.09327 56.254644,245.90834 -2.2615981,143.61944 -3.6977199,44.691056 Z" /></g></g><g
       style="display:inline"
       transform="matrix(0.36676583,0,0,-0.36676583,640.227,889.76643)"
       id="g1563"><g
         transform="translate(267.06542,369.97437)"
         style="display:inline"
         id="g1553"><path
           id="path1537"
           d="m 684.38411,782.68157 c -25.35546,17.40911 -32.43385,24.06667 -60.96203,46.44148 C 858.59887,1069.0012 1152.1366,1028.8384 1177.1665,1031.8866 824.24146,1209.9584 622.96306,898.55659 546.71336,891.26359 508.65671,922.48691 411.61202,1020.4465 310.44364,1053.5673 -31.736581,1137.5927 -197.406,951.67043 -193.24926,789.53776 -323.19535,596.96098 -257.2532,444.27788 -114.35901,388.06982 c 104.8567939,-41.24588 241.59825,-19.63383 335.26454,-3.26223 -374.99089,-966.1194 1003.63697,-1040.2986 726.58869,-59.08565 83.63988,-8.45775 276.42258,-0.19347 305.38818,192.91778 404.6397,126.28926 60.741,552.95528 -350.03115,399.24864 C 853.75369,894.57988 687.28978,787.23957 684.38411,782.68157 Z"
           style="clip-rule:evenodd;opacity:1;fill:#fffeff;fill-opacity:1;fill-rule:evenodd;stroke:#000016;stroke-width:1;stroke-linecap:butt;stroke-linejoin:round;stroke-miterlimit:4;stroke-dasharray:none;stroke-opacity:1"><title
             id="title1535">outer</title></path><path
           id="path1539"
           d="m 771.7482,714.70835 c 416.5619,382.62665 883.7275,-27.15396 465.233,-110.67412 -19.4323,59.15404 -89.6657,119.75997 -189.2247,118.20081 56.347,-56.82784 95.9854,-29.13218 138.8848,-126.82567 -126.7284,-12.25408 -302.63573,5.49582 -414.8931,119.29898 z"
           style="clip-rule:evenodd;fill:#000000;fill-opacity:1;fill-rule:evenodd;stroke:#00000e;stroke-width:1;stroke-linejoin:round;stroke-miterlimit:4;stroke-dasharray:none;stroke-opacity:1" /><path
           id="path1541"
           d="M -167.13272,700.90559 C -27.95006,490.88398 297.4533,611.2301 408.0141,665.74774 c 31.30149,-19.06207 43.99995,-30.59489 71.2601,-45.33675 -373.20344,-393.91244 -823.96529,-206.97536 -646.40692,80.4946 z"
           style="clip-rule:evenodd;fill:#000000;fill-opacity:1;fill-rule:evenodd;stroke:#180000;stroke-width:1;stroke-linejoin:round;stroke-miterlimit:4;stroke-dasharray:none;stroke-opacity:1" /><path
           id="path1543"
           d="M -117.30702,838.90661 C 59.451463,1098.3646 330.10955,1033.1756 521.13454,862.85138 486.27074,814.94142 417.59068,763.85364 363.20636,735.86192 219.6777,827.96574 78.177985,907.14804 -117.30702,838.90661 Z"
           style="clip-rule:evenodd;fill:#000000;fill-opacity:1;fill-rule:evenodd;stroke:#000000;stroke-width:1;stroke-linejoin:round;stroke-miterlimit:4;stroke-dasharray:none;stroke-opacity:1" /><path
           id="path1545"
           d="M 338.04552,710.25627 C 48.592701,523.53383 -186.64164,701.43035 -104.91763,751.16086 70.599717,815.92304 215.09923,794.80398 338.04552,710.25627 Z"
           style="clip-rule:evenodd;fill:#0c0000;fill-opacity:1;fill-rule:evenodd;stroke:#120000;stroke-width:1;stroke-linejoin:round;stroke-miterlimit:4;stroke-dasharray:none;stroke-opacity:1" /><path
           id="path1547"
           d="m 507.48886,640.70522 c -23.95742,18.48369 -34.19004,22.80678 -66.07915,42.84232 42.96757,31.74898 96.00719,69.82449 155.86879,116.96275 24.65236,-21.02762 29.1045,-20.54302 50.70049,-40.11023 -76.97622,-61.17532 -98.42845,-78.21421 -140.49013,-119.69484 z"
           style="clip-rule:evenodd;fill:#000000;fill-opacity:1;fill-rule:evenodd;stroke:#000000;stroke-width:1;stroke-linejoin:round;stroke-miterlimit:4;stroke-dasharray:none;stroke-opacity:1" /><path
           id="path1549"
           d="M 281.82895,48.144092 C 317.84514,-517.12145 888.38809,-422.08881 862.28524,80.404927 829.24071,670.67667 233.57444,617.16999 281.82895,48.144092 Z"
           style="clip-rule:evenodd;fill:#050000;fill-opacity:1;fill-rule:evenodd;stroke:none;stroke-width:8;stroke-linejoin:round;stroke-miterlimit:4;stroke-dasharray:none;stroke-opacity:1" /><path
           id="path1551"
           d="M 733.70432,693.51011 C 680.76798,651.20597 644.34246,621.84 589.19367,570.63937 c 10.11717,-26.11616 41.18068,-34.03047 66.10297,-38.59897 61.88895,-12.73241 122.80852,-36.20667 170.72297,-78.47556 27.53132,-22.93183 53.16745,-48.00001 79.22739,-72.55918 77.04992,-17.22536 162.1178,1.16671 221.7681,53.99651 26.5851,22.85107 49.0663,50.80525 64.262,82.4774 -86.5629,1.23754 -168.6828,-1.99521 -266.53484,50.96818 -70.26388,37.912 -128.90055,72.90708 -191.03794,125.06236 z"
           style="clip-rule:evenodd;fill:#000000;fill-opacity:1;fill-rule:evenodd;stroke:#000000;stroke-width:1;stroke-linejoin:round;stroke-miterlimit:4;stroke-dasharray:none;stroke-opacity:1" /></g></g><g
       style="display:inline"
       transform="translate(5.884469,-1448.3098)"
       id="g1624"><g
         transform="matrix(2.7600354,0,0,-2.7600354,268.27018,1738.3157)"
         class="layer"
         id="g1589"
         style="display:inline;fill:#f8ffff;fill-opacity:1;stroke:#a0b716;stroke-width:1.80183792;stroke-miterlimit:4;stroke-dasharray:none;stroke-opacity:1"><title
           id="title1565">Layer 1</title><path
           d="m 394.38592,53.669132 c 0.815,4.067 1.187,8.169 1.758,12.269 0.2,1.444 2.19933,1.658333 -1.729,2.212 -3.92833,0.553667 -67.054,-3.759 -143.92,-5.22 -76.866,-1.461 -153.933242,2.551781 -156.613242,2.376781 -2.68,-0.175 -4.036512,-0.576439 -3.855512,-2.530439 0.626,-6.76 2.336756,-13.498341 2.971756,-20.252341 0.137,-1.459 -0.146,-1.807 -1.602,-1.802 -6.666,0.021 -13.352,0.213 -19.991,0.781 -0.467,7.172 0.095,14.34 0.387,21.519 0.056,1.368 -0.231,1.691 -1.74,1.795 -13.606,0.938 -37.707478,2.590251 -41.786286,3.110286 -4.078808,0.520035 -22.070714,4.426571 -25.304714,5.169571 -3.985,0.916 -1.588,-3.037857 -0.952,-3.875857 2.264,-2.983 3.708714,-7.776286 3.467,-10.303286 -0.241714,-2.527 -3.743571,-7.714428 -4.617,-9.070571 -0.873429,-1.356143 -0.961929,-2.062 0.573589,-2.521107 1.535518,-0.459107 23.987911,-4.650036 24.503411,-5.162036 0.5155,-0.512 0.108386,-5.748106 -0.727392,-10.809488 -0.835778,-5.061382 -3.400222,-9.881374 -3.666047,-10.761146 -0.53165,-1.759545 -0.205548,-1.564563 3.483024,-3.383293 1.844286,-0.909365 21.40892,-7.409255 43.646053,-10.96471 22.237133,-3.555455 44.61018,-4.703059 46.99812,-4.76151 7.40489,-0.628151 7.77589,0.503434 8.55319,1.829239 0.77729,1.325805 -5.32624,10.79197 -4.88165,11.916853 0.44458,1.124882 83.32082,-2.696063 131.1377,-2.803298 47.81688,-0.107235 117.37,5.418353 118.123,4.194353 0.753,-1.224 -3.289,-10.466 -3.678,-12.255 -0.389,-1.789 0.893,-2.381 3.232,-2.492 2.339,-0.111 25.852,1.393 49.922,5.764 24.07,4.371 53.76881,13.67855 50.027,18.465 -3.74182,4.78646 -5.301,10.125 -5.733,11.666 -0.432,1.541 -2.307,8.072 -0.322,8.415 30.225,4.877 28.648,4.414 29.751,4.715 1.103,0.301 0.889,1.922 0.108,2.511 -0.781,0.589 -6.557,4.144 -7.471,9.826 -0.914,5.682 1.724,11.567 0.962,13.067 -0.762,1.5 -10.44,-1.674 -14.569,-2.095 -8.063,-0.822 -26.587,-3.398 -34.619,-4.511 -7.10767,-0.83017 -10.89634,-1.59618 -16.01593,-1.92031 -5.11959,-0.32413 -4.64895,-2.36822 -4.69536,-3.18738 -0.0464,-0.81916 1.66471,-14.81204 2.02371,-18.69804 0.118,-1.274 -0.56942,-1.67727 -1.88742,-1.87427 -7.426,-1.11 -15.836,-3.107 -23.348,-2.099 z"
           id="path1567"
           style="fill:#fffffa;fill-opacity:1;stroke:#ffffff;stroke-width:1.80183792;stroke-miterlimit:4;stroke-dasharray:none;stroke-opacity:1" /><path
           d="m 251.36039,14.757426 c -48.11821,0.45702 -131.19147,1.833706 -133.81247,4.907706 -2.621,3.074 0.3973,10.706951 5.72529,17.060951 5.328,6.354 0.56295,6.291138 -4.47895,9.664382 -5.04191,3.373244 -25.532229,14.983901 -24.66515,16.801471 0.867079,1.81757 50.28981,-4.077805 157.35581,-2.575805 107.066,1.502 140.39167,6.513667 140.87967,4.942 0.488,-1.571666 -9.10467,-9.022 -13.70067,-12.627 -2.399,-1.883 -4.86,-3.639 -7.486,-5.194 -2.596,-1.536 -5.589,-3.588 -8.63,-4.027 -0.971,-0.14 -1.575,-1.801 -0.813,-2.508 7.167,-14.153 7.8301,-20.31749 6.98953,-20.856941 -0.84057,-0.539451 -69.24584,-6.044784 -117.36406,-5.587765 z"
           id="path1569"
           style="fill:#000000;fill-opacity:1;stroke:#fffffa;stroke-width:1.80183792;stroke-miterlimit:4;stroke-dasharray:none;stroke-opacity:1" /><path
           d="m 365.69292,40.231132 c 8.158,-0.192 15.872,-0.825 23.565,-0.628 7.999,0.206 16.011,0.972 23.936,2.06 7.592,1.043 15.061,2.713 22.543,4.341 3.806,0.828 7.669,1.583 11.379,2.789 3.515,1.143 9.747,4.226 10.367,3.885 0.62,-0.341 1.498,-10.425 2.786,-14.965 1.25,-4.406 4.942,-9.569 4.983,-12.248 0.041,-2.679 -21.182,-9.919 -47.38,-14.684 -26.198,-4.765 -48.85,-6.65 -50.083,-6.251 -1.233,0.399 4.28153,11.252882 4.2423,14.334824 -0.0392,3.081941 -6.7013,20.745176 -6.3383,21.366176 0.363,0.621 -0.03,-0.171 0,0 z"
           id="path1571"
           style="fill:#000000;fill-opacity:1;stroke:#fffffa;stroke-width:1.80183792;stroke-miterlimit:4;stroke-dasharray:none;stroke-opacity:1" /><path
           d="m 24.283875,20.000103 c -0.446925,1.083176 1.419718,3.537814 2.598996,10.338313 1.179279,6.800499 1.33786,17.246859 2.341479,17.880145 1.003619,0.633286 27.205481,-7.200038 37.392143,-8.688714 10.186662,-1.488676 22.408428,-1.207714 30.622428,-0.696714 20.696999,1.486 22.440999,1.747 24.134999,0.81 -5.826,-9.198 -7.056,-14.035 -6.837,-19.241 0.245,-5.815 8.7925,-14.842797 6.93582,-16.257182 C 119.61606,2.730566 81.93011,6.035693 69.67099,8.011552 57.41187,9.987411 24.7308,18.916928 24.283875,20.000104 Z"
           id="path1573"
           style="fill:#000000;fill-opacity:1;stroke:#fffffa;stroke-width:1.80183792;stroke-miterlimit:4;stroke-dasharray:none;stroke-opacity:1" /><path
           d="m 461.80592,48.705132 c -1.395,-0.238 -1.544,-0.123 -1.704,1.378 -0.125,1.17 -0.198,2.326 -0.302,3.499 -0.112,1.273 -0.47919,1.27621 -1.729,1.629 -1.24982,0.3528 -36.05718,9.52798 -36.52111,10.19317 -0.46393,0.66518 22.28111,2.77783 32.30111,4.21283 28.409,4.231 27.349,4.74934 27.838,4.309 0.489,-0.44033 0.11833,-7.29367 0.0273,-10.07266 -0.179,-5.501 7.08067,-10.52267 6.184,-10.692 z"
           id="path1575"
           style="fill:#000000;fill-opacity:1;stroke:#fffffa;stroke-width:1.80183792;stroke-miterlimit:4;stroke-dasharray:none;stroke-opacity:1" /><path
           d="m 3.104922,49.381132 c -0.374572,1.718857 4.29646,6.95045 4.33146,8.86045 0.09,4.933 -4.73883,12.08925 -3.93346,12.68955 20.035,-4.054571 18.758516,-4.240474 25.778285,-5.221571 7.01977,-0.981097 38.49175,-2.432531 38.738143,-3.073 0.246393,-0.640469 -38.924905,-10.532334 -40.147333,-11.848191 -1.222429,-1.315857 -0.352905,-5.185905 -1.449762,-5.958905 -1.096857,-0.773 -22.942762,2.83281 -23.317333,4.551667 z"
           id="path1577"
           style="fill:#000000;fill-opacity:1;stroke:#fffffa;stroke-width:1.80183792;stroke-miterlimit:4;stroke-dasharray:none;stroke-opacity:1" /><path
           d="m 30.732573,50.179401 c -0.339554,0.568413 36.743059,10.456041 37.428349,9.901731 0.68528,-0.5543 1.654373,-16.114137 0.131143,-17.601857 -1.52324,-1.48771 -37.219937,7.131713 -37.559492,7.700126 z"
           id="path1579"
           style="fill:#000000;fill-opacity:1;stroke:#fffffa;stroke-width:1.80183792;stroke-miterlimit:4;stroke-dasharray:none;stroke-opacity:1" /><path
           d="m 421.72192,45.090132 c -1.56534,0.349 -2.312,5.461 -2.559,7.297 -0.538,4 -2.63067,12.50034 -1.389,12.011 1.24166,-0.48933 35.30933,-9.664 34.384,-11.115 -0.92534,-1.451 -28.87067,-8.542 -30.436,-8.193 z"
           id="path1581"
           style="fill:#000000;fill-opacity:1;stroke:#fffffa;stroke-width:1.80183792;stroke-miterlimit:4;stroke-dasharray:none;stroke-opacity:1" /><path
           d="m 378.66392,49.904132 c 4.482,3.227 10.342,8.365 14.63,11.838 0.66,-3.935 -1.173,-8.787 -1.906,-12.637 -0.41,-2.157 -0.68,-4.438 -1.34,-6.536 -0.374,-1.191 -1.494,-1.081 -2.556,-1.097 -5.977,-0.09 -21.29267,0.06134 -20.946,1.055 0.34666,0.99367 7.93233,4.58534 12.118,7.377 z"
           id="path1583"
           style="fill:#000000;fill-opacity:1;stroke:#fffffa;stroke-width:1.80183792;stroke-miterlimit:4;stroke-dasharray:none;stroke-opacity:1" /><path
           d="m 96.854922,40.939132 c -0.934,-0.076 -1.295,0.355 -1.429,1.269 -0.637,4.36 -3.131988,16.771785 -2.663358,17.440325 0.46862,0.66854 26.946196,-15.824698 26.380016,-16.832378 -0.56617,-1.00767 -17.39503,-1.495197 -22.287658,-1.876947 z"
           id="path1585"
           style="fill:#000000;fill-opacity:1;stroke:#fffffa;stroke-width:1.80183792;stroke-miterlimit:4;stroke-dasharray:none;stroke-opacity:1" /></g><text
         xml:space="preserve"
         style="font-style:normal;font-variant:normal;font-weight:normal;font-stretch:normal;font-size:110.80212402px;line-height:1.25;font-family:'Sailors Diary';-inkscape-font-specification:'Sailors Diary, Normal';font-variant-ligatures:normal;font-variant-caps:normal;font-variant-numeric:normal;font-feature-settings:normal;text-align:start;letter-spacing:0px;word-spacing:0px;writing-mode:lr-tb;text-anchor:start;fill:#ffffff;fill-opacity:1;stroke:none;stroke-width:1.48395133;stroke-opacity:1"
         x="651.44397"
         y="-1551.6885"
         id="text1593"
         transform="scale(0.97344112,-1.0272835)"><tspan
           id="tspan1591"
           x="651.44397"
           y="-1551.6885"
           style="fill:#ffffff;fill-opacity:1;stroke-width:1.48395133">OSWALDS</tspan></text>
<text
         transform="matrix(0.90562489,0.12291197,0.07090249,-1.094587,0,0)"
         id="text1597"
         y="-1435.7357"
         x="564.25385"
         style="font-style:normal;font-variant:normal;font-weight:normal;font-stretch:normal;font-size:64.35010529px;line-height:1.25;font-family:'Sailors Diary';-inkscape-font-specification:'Sailors Diary, Normal';font-variant-ligatures:normal;font-variant-caps:normal;font-variant-numeric:normal;font-feature-settings:normal;text-align:start;letter-spacing:0px;word-spacing:0px;writing-mode:lr-tb;text-anchor:start;fill:#ffffff;fill-opacity:1;stroke:none;stroke-width:0.86183161"
         xml:space="preserve"><tspan
           style="font-style:normal;font-variant:normal;font-weight:normal;font-stretch:normal;font-size:64.35010529px;font-family:'Sailors Diary';-inkscape-font-specification:'Sailors Diary, Normal';font-variant-ligatures:normal;font-variant-caps:normal;font-variant-numeric:normal;font-feature-settings:normal;text-align:start;writing-mode:lr-tb;text-anchor:start;fill:#ffffff;fill-opacity:1;stroke-width:0.86183161"
           y="-1435.7357"
           x="564.25385"
           id="tspan1595">EST.</tspan></text>
<text
         xml:space="preserve"
         style="font-style:normal;font-variant:normal;font-weight:normal;font-stretch:normal;font-size:64.54374695px;line-height:1.25;font-family:'Sailors Diary';-inkscape-font-specification:'Sailors Diary, Normal';font-variant-ligatures:normal;font-variant-caps:normal;font-variant-numeric:normal;font-feature-settings:normal;text-align:start;letter-spacing:0px;word-spacing:0px;writing-mode:lr-tb;text-anchor:start;fill:#ffffff;fill-opacity:1;stroke:none;stroke-width:0.86442506"
         x="998.10571"
         y="-1697.0299"
         id="text1601"
         transform="matrix(0.90081863,-0.15423855,-0.26050481,-1.0654976,0,0)"><tspan
           id="tspan1599"
           x="998.10571"
           y="-1697.0299"
           style="font-style:normal;font-variant:normal;font-weight:normal;font-stretch:normal;font-size:64.54374695px;font-family:'Sailors Diary';-inkscape-font-specification:'Sailors Diary, Normal';font-variant-ligatures:normal;font-variant-caps:normal;font-variant-numeric:normal;font-feature-settings:normal;text-align:start;writing-mode:lr-tb;text-anchor:start;fill:#ffffff;fill-opacity:1;stroke-width:0.86442506">2019</tspan></text>
</g></g></svg>